<?xml version="1.0" encoding="utf-8"?>
<!-- Generator: Adobe Illustrator 24.3.0, SVG Export Plug-In . SVG Version: 6.00 Build 0)  -->
<svg version="1.1" id="Layer_1" xmlns="http://www.w3.org/2000/svg" xmlns:xlink="http://www.w3.org/1999/xlink" x="0px" y="0px"
	 viewBox="0 0 671 157" style="enable-background:new 0 0 671 157;" xml:space="preserve">
<style type="text/css">
	.st0{fill:#046EAC;}
</style>
<g>
	<path class="st0" d="M98.3,66.6c3,1.6,5.3,3.9,6.9,6.9c1.7,3,2.5,6.4,2.5,10.3c0,3.9-0.8,7.3-2.5,10.3c-1.7,3-4,5.3-6.9,6.9
		c-3,1.6-6.3,2.4-10,2.4c-5.2,0-9.3-1.7-12.3-5.2V117h-9V64.6h8.6v5c1.5-1.8,3.3-3.2,5.5-4.1c2.2-0.9,4.6-1.4,7.2-1.4
		C92,64.1,95.3,64.9,98.3,66.6z M95.4,92.5c2.1-2.2,3.2-5.1,3.2-8.7s-1.1-6.5-3.2-8.7c-2.1-2.2-4.9-3.3-8.2-3.3
		c-2.2,0-4.1,0.5-5.8,1.5c-1.7,1-3.1,2.4-4.1,4.2c-1,1.8-1.5,3.9-1.5,6.3c0,2.4,0.5,4.5,1.5,6.3c1,1.8,2.4,3.2,4.1,4.2
		c1.7,1,3.7,1.5,5.8,1.5C90.5,95.8,93.2,94.7,95.4,92.5z"/>
	<path class="st0" d="M138.5,64.1v8.6c-0.8-0.1-1.5-0.2-2.1-0.2c-3.5,0-6.2,1-8.2,3.1c-2,2-3,5-3,8.8V103h-9V64.6h8.6v5.6
		C127.5,66.1,132,64.1,138.5,64.1z"/>
	<path class="st0" d="M152.6,101c-3.1-1.7-5.6-4-7.3-7c-1.8-3-2.6-6.4-2.6-10.2c0-3.8,0.9-7.2,2.6-10.2c1.8-3,4.2-5.3,7.3-7
		c3.1-1.7,6.6-2.5,10.5-2.5c3.9,0,7.5,0.8,10.6,2.5c3.1,1.7,5.6,4,7.3,7c1.8,3,2.6,6.4,2.6,10.2c0,3.8-0.9,7.2-2.6,10.2
		c-1.8,3-4.2,5.3-7.3,7c-3.1,1.7-6.6,2.5-10.6,2.5C159.2,103.5,155.7,102.7,152.6,101z M171.3,92.5c2.2-2.2,3.2-5.1,3.2-8.7
		s-1.1-6.5-3.2-8.7c-2.2-2.2-4.9-3.3-8.2-3.3s-6,1.1-8.2,3.3c-2.1,2.2-3.2,5.1-3.2,8.7s1.1,6.5,3.2,8.7c2.1,2.2,4.9,3.3,8.2,3.3
		S169.1,94.7,171.3,92.5z"/>
	<path class="st0" d="M215.4,100.9c-1.1,0.9-2.3,1.5-3.9,1.9c-1.5,0.4-3.1,0.6-4.8,0.6c-4.2,0-7.5-1.1-9.8-3.3
		c-2.3-2.2-3.5-5.4-3.5-9.6V72h-6.3v-7.2h6.3v-8.8h9v8.8h10.3V72h-10.3v18.3c0,1.9,0.5,3.3,1.4,4.3c0.9,1,2.2,1.5,4,1.5
		c2,0,3.7-0.5,5-1.6L215.4,100.9z"/>
	<path class="st0" d="M228.3,101c-3.1-1.7-5.6-4-7.3-7c-1.8-3-2.6-6.4-2.6-10.2c0-3.8,0.9-7.2,2.6-10.2c1.8-3,4.2-5.3,7.3-7
		c3.1-1.7,6.6-2.5,10.5-2.5c3.9,0,7.5,0.8,10.6,2.5c3.1,1.7,5.6,4,7.3,7c1.8,3,2.6,6.4,2.6,10.2c0,3.8-0.9,7.2-2.6,10.2
		c-1.8,3-4.2,5.3-7.3,7c-3.1,1.7-6.6,2.5-10.6,2.5C234.9,103.5,231.4,102.7,228.3,101z M247,92.5c2.2-2.2,3.2-5.1,3.2-8.7
		s-1.1-6.5-3.2-8.7c-2.2-2.2-4.9-3.3-8.2-3.3s-6,1.1-8.2,3.3c-2.1,2.2-3.2,5.1-3.2,8.7s1.1,6.5,3.2,8.7c2.1,2.2,4.9,3.3,8.2,3.3
		S244.8,94.7,247,92.5z"/>
	<path d="M259,116.7c-1.4-0.4-2.6-1-3.5-1.8l1.8-3.9c1.5,1.3,3.5,1.9,5.9,1.9c2,0,3.6-0.6,4.6-1.8c1.1-1.2,1.6-3,1.6-5.3V65.1h5.1
		v40.7c0,3.6-1,6.4-2.9,8.4c-1.9,2.1-4.7,3.1-8.2,3.1C262,117.3,260.5,117.1,259,116.7z M269.4,55.7c-0.7-0.7-1.1-1.6-1.1-2.6
		c0-1,0.4-1.8,1.1-2.5s1.6-1.1,2.7-1.1c1.1,0,1.9,0.3,2.7,1c0.7,0.7,1.1,1.5,1.1,2.5c0,1.1-0.4,1.9-1.1,2.7
		c-0.7,0.7-1.6,1.1-2.7,1.1C271,56.8,270.2,56.4,269.4,55.7z"/>
	<path d="M323,65.1V103h-4.9v-6.9c-1.3,2.3-3.2,4.1-5.5,5.4c-2.4,1.3-5,1.9-8.1,1.9c-4.9,0-8.8-1.4-11.7-4.1
		c-2.9-2.8-4.3-6.8-4.3-12.1v-22h5.1v21.5c0,4,1,7,3,9.1c2,2.1,4.8,3.1,8.4,3.1c4,0,7.1-1.2,9.4-3.6c2.3-2.4,3.5-5.8,3.5-10.1V65.1
		H323z"/>
	<path d="M368,69c2.8,2.8,4.2,6.8,4.2,12.1v22h-5.1V81.5c0-3.9-1-6.9-3-9c-2-2.1-4.8-3.1-8.4-3.1c-4.1,0-7.3,1.2-9.7,3.6
		c-2.4,2.4-3.6,5.8-3.6,10V103h-5.1V65.1h4.9v7c1.4-2.3,3.3-4.1,5.8-5.4c2.5-1.3,5.3-1.9,8.6-1.9C361.4,64.8,365.2,66.2,368,69z"/>
	<path d="M391.9,100.9c-3-1.6-5.3-3.9-6.9-6.9c-1.7-3-2.5-6.3-2.5-10c0-3.7,0.8-7,2.5-9.9c1.7-2.9,4-5.2,6.9-6.8
		c3-1.6,6.3-2.4,10-2.4c3.3,0,6.2,0.6,8.7,1.9c2.6,1.3,4.6,3.1,6.1,5.6l-3.8,2.6c-1.2-1.9-2.8-3.3-4.8-4.2c-1.9-0.9-4-1.4-6.3-1.4
		c-2.7,0-5.2,0.6-7.4,1.8c-2.2,1.2-3.9,3-5.1,5.2c-1.2,2.3-1.8,4.8-1.8,7.7c0,2.9,0.6,5.5,1.8,7.7c1.2,2.2,2.9,4,5.1,5.2
		c2.2,1.2,4.6,1.8,7.4,1.8c2.3,0,4.3-0.5,6.3-1.4c1.9-0.9,3.5-2.3,4.8-4.2l3.8,2.6c-1.5,2.4-3.5,4.3-6.1,5.6
		c-2.6,1.3-5.5,1.9-8.7,1.9C398.2,103.4,394.8,102.5,391.9,100.9z"/>
	<path d="M447.1,100.7c-1,0.9-2.1,1.5-3.6,2c-1.4,0.5-2.9,0.7-4.4,0.7c-3.6,0-6.3-1-8.2-2.9c-1.9-1.9-2.9-4.6-2.9-8.1V69.4h-6.8
		v-4.3h6.8v-8.3h5.1v8.3h11.5v4.3h-11.5v22.6c0,2.3,0.6,4,1.7,5.1c1.1,1.2,2.7,1.8,4.9,1.8c1.1,0,2.1-0.2,3.1-0.5
		c1-0.3,1.8-0.8,2.6-1.4L447.1,100.7z"/>
	<path d="M456.3,55.8c-0.7-0.7-1.1-1.6-1.1-2.6c0-1,0.4-1.8,1.1-2.5c0.7-0.7,1.6-1.1,2.7-1.1c1.1,0,1.9,0.3,2.7,1
		c0.7,0.7,1.1,1.5,1.1,2.5c0,1.1-0.4,1.9-1.1,2.7c-0.7,0.7-1.6,1.1-2.7,1.1C458,56.8,457.1,56.5,456.3,55.8z M456.4,65.1h5.1V103
		h-5.1V65.1z"/>
	<path d="M481.4,100.9c-2.9-1.7-5.2-3.9-6.9-6.9c-1.7-2.9-2.5-6.2-2.5-9.9c0-3.7,0.8-7,2.5-9.9c1.7-2.9,4-5.2,6.9-6.8
		c2.9-1.6,6.2-2.4,9.9-2.4c3.6,0,6.9,0.8,9.9,2.4c2.9,1.6,5.2,3.9,6.9,6.8c1.7,2.9,2.5,6.2,2.5,9.9c0,3.7-0.8,7-2.5,9.9
		c-1.7,2.9-3.9,5.2-6.9,6.9c-2.9,1.7-6.2,2.5-9.9,2.5C487.6,103.4,484.3,102.5,481.4,100.9z M498.5,97c2.1-1.2,3.8-3,5-5.2
		c1.2-2.3,1.8-4.8,1.8-7.7s-0.6-5.4-1.8-7.7c-1.2-2.3-2.9-4-5-5.2c-2.1-1.2-4.5-1.8-7.2-1.8c-2.7,0-5.1,0.6-7.2,1.8
		c-2.1,1.2-3.8,3-5,5.2c-1.2,2.3-1.8,4.8-1.8,7.7s0.6,5.4,1.8,7.7c1.2,2.3,2.9,4,5,5.2c2.1,1.2,4.5,1.8,7.2,1.8
		C494,98.8,496.4,98.2,498.5,97z"/>
	<path d="M551.6,69c2.8,2.8,4.2,6.8,4.2,12.1v22h-5.1V81.5c0-3.9-1-6.9-3-9c-2-2.1-4.8-3.1-8.4-3.1c-4.1,0-7.3,1.2-9.7,3.6
		c-2.4,2.4-3.6,5.8-3.6,10V103h-5.1V65.1h4.9v7c1.4-2.3,3.3-4.1,5.8-5.4c2.5-1.3,5.3-1.9,8.6-1.9C545,64.8,548.8,66.2,551.6,69z"/>
</g>
</svg>
