<svg id="Layer_1" data-name="Layer 1" xmlns="http://www.w3.org/2000/svg" viewBox="0 0 102.22 422.36"><defs><style>.cls-1{fill:#505050;}</style></defs><path class="cls-1" d="M198.1,422.36h-1V306.78c-1-3.35-3.29-6.78-5.36-6.78s-4,3.81-4.71,7.39l-.08.44-.44,0a46.31,46.31,0,0,1-12.65-2.65l-.42-.15.1-.44c.82-3.41.57-7.57-1.24-8.62s-5.4,1.28-7.77,4.05l-.29.33-.37-.24a46.49,46.49,0,0,1-9.62-8.63l-.28-.34.3-.32c2.41-2.56,4.27-6.28,3.23-8.09s-5.28-1.61-8.76-.38l-.42.15-.2-.4a45.8,45.8,0,0,1-4-12.28l-.08-.44.42-.13c3.37-1,6.85-3.3,6.85-5.39s-3.76-4-7.39-4.7l-.44-.08,0-.45A46.16,46.16,0,0,1,146.15,246l.15-.42.44.1c3.42.81,7.58.57,8.62-1.24s-1.28-5.41-4-7.78l-.34-.29.25-.37a46.33,46.33,0,0,1,8.62-9.61l.34-.29.33.31c2.55,2.4,6.27,4.27,8.08,3.22s1.61-5.27.38-8.75l-.15-.42.4-.2a45.82,45.82,0,0,1,12.28-4l.44-.08.13.43c1,3.36,3.29,6.84,5.38,6.84s4-3.75,4.71-7.39l.08-.43.45,0a45.94,45.94,0,0,1,12.64,2.64l.42.16-.1.43c-.81,3.42-.57,7.58,1.24,8.63s5.29-1.2,7.66-3.91l.07-9.19c0-1.64,0-5.07-1.19-5.77s-3.63,1-5.17,2.83l-.29.34-.37-.25a34.41,34.41,0,0,1-7.07-6.34l-.29-.35.31-.32c1.69-1.79,3.07-4.51,2.34-5.76s-3.75-1.11-6.26-.22l-.41.15-.2-.4a33.87,33.87,0,0,1-3-9l-.07-.44.42-.12c2.37-.71,4.92-2.37,4.92-3.82s-2.7-2.84-5.3-3.32l-.44-.08,0-.44a34,34,0,0,1,2-9.31l.15-.42.43.11c2.41.56,5.45.4,6.18-.85s-.92-3.81-2.94-5.53l-.34-.29.25-.37a33.89,33.89,0,0,1,6.35-7.07L205,157l.32.31c1.8,1.69,4.51,3.07,5.76,2.34s1.11-3.75.22-6.26l-.15-.42.4-.19a33.87,33.87,0,0,1,9-3l.44-.07.13.42c.7,2.37,2.36,4.92,3.81,4.92s2.84-2.7,3.32-5.3l.08-.44.45,0a33.6,33.6,0,0,1,9.3,1.95l.42.15-.1.43c-.57,2.41-.41,5.45.85,6.18s3.68-.85,5.4-2.8V0h1V155.65l-.12.14c-1.4,1.64-4.62,4.4-6.78,3.15-1.85-1.06-1.88-4.51-1.42-6.83a32.64,32.64,0,0,0-8.19-1.71c-.49,2.18-1.87,5.68-4.21,5.68-2.13,0-3.87-3-4.64-5.2a32.4,32.4,0,0,0-7.94,2.6c.67,2.14,1.22,5.86-.81,7-1.83,1.06-4.83-.63-6.61-2.18a32.65,32.65,0,0,0-5.58,6.22c1.64,1.52,4,4.46,2.81,6.49-1.06,1.84-4.51,1.87-6.83,1.41a33.08,33.08,0,0,0-1.71,8.19c2.18.49,5.68,1.87,5.68,4.2,0,2.14-3,3.88-5.2,4.65a32.26,32.26,0,0,0,2.6,7.94c2.14-.67,5.86-1.22,7,.81,1.06,1.84-.63,4.83-2.18,6.61a32.38,32.38,0,0,0,6.22,5.58c1.17-1.29,4-4,6.13-2.71,1.72,1,1.7,4.53,1.69,6.65l-.08,9.55-.11.14c-1.88,2.19-6.18,5.91-9,4.26-2.47-1.43-2.45-6.17-1.81-9.28a44.53,44.53,0,0,0-11.52-2.41c-.63,2.91-2.47,7.76-5.61,7.76-2.85,0-5.21-4.11-6.21-7.12a45.12,45.12,0,0,0-11.19,3.65c.92,2.85,1.76,8-1,9.54-2.47,1.43-6.56-1-8.94-3.06a45.47,45.47,0,0,0-7.86,8.76c2.21,2,5.49,6,3.93,8.74-1.43,2.47-6.17,2.45-9.29,1.81a45.2,45.2,0,0,0-2.41,11.52c2.92.63,7.77,2.47,7.77,5.6,0,2.86-4.11,5.22-7.13,6.22a44.74,44.74,0,0,0,3.66,11.19c2.84-.92,8-1.75,9.53,1,1.43,2.48-1,6.57-3.06,8.94a45.47,45.47,0,0,0,8.76,7.86c2-2.21,6-5.49,8.74-3.93,2.48,1.44,2.46,6.17,1.81,9.29a45.36,45.36,0,0,0,11.53,2.41c.62-2.92,2.47-7.77,5.6-7.77s5.44,4.52,6.34,7.56l0,.14Z" transform="translate(-143.47)"/><path class="cls-1" d="M226.54,201.48a19.15,19.15,0,1,1,19.15-19.15A19.17,19.17,0,0,1,226.54,201.48Zm0-37.3a18.15,18.15,0,1,0,18.15,18.15A18.17,18.17,0,0,0,226.54,164.18Z" transform="translate(-143.47)"/><path class="cls-1" d="M189.6,290.85a29.15,29.15,0,1,1,29.15-29.15A29.19,29.19,0,0,1,189.6,290.85Zm0-57.3a28.15,28.15,0,1,0,28.15,28.15A28.18,28.18,0,0,0,189.6,233.55Z" transform="translate(-143.47)"/></svg>