<svg xmlns="http://www.w3.org/2000/svg" viewBox="0 0 249.46 367.83"><defs><style>.cls-1{isolation:isolate;}.cls-2{fill:#505050;}.cls-3{opacity:0.5;mix-blend-mode:screen;}</style></defs><g class="cls-1"><g id="Layer_1" data-name="Layer 1"><path class="cls-2" d="M343.14,395.44a35.05,35.05,0,0,0,33,23.35,35.26,35.26,0,0,0,31.69-20,35.09,35.09,0,0,0-31.64-50.16,35.28,35.28,0,0,0-31.7,20A34.82,34.82,0,0,0,343.14,395.44ZM345,368.87a34.72,34.72,0,0,1,31.22-19.71,34.54,34.54,0,0,1,31.16,49.39,34.51,34.51,0,0,1-46,16.35,34.59,34.59,0,0,1-16.35-46Z" transform="translate(-195.89 -73)"/><path class="cls-2" d="M430.79,388.44c-.14-.05-3.32-1.28-6.5-2.27-1.2-.38-2.4-.72-3.5-1l-1.1-.3a53.05,53.05,0,0,0-.77-9.13c.95-.42,2.61-1.18,4.37-2.07s3.18-1.6,4.3-2.23c.88-.51,1.56-.89,1.73-1a3,3,0,0,0,1.76-1.41,2.5,2.5,0,0,0,.22-2s-.41-1.3-.83-2.69c-.5-1.2-1-2.45-1-2.45a2.65,2.65,0,0,0-2.52-1.61,2.86,2.86,0,0,0-1.09.2l-.19,0-1.86.3c-1.44.26-3.17.6-4.73.95-1.78.4-3.58.88-4.67,1.17-.16-.3-.31-.6-.46-.9a35,35,0,0,0-4.7-6.71c.67-.93,1.67-2.36,2.71-3.9,1.73-2.6,3.32-5.34,3.58-5.82a3,3,0,0,0,.84-2.08,2.52,2.52,0,0,0-.72-1.81,7.79,7.79,0,0,0-.71-.67l-.73-.61-.7-.59-2.06-1.71a2.32,2.32,0,0,0-1.53-.54,3,3,0,0,0-2.35,1.13c-.88.73-3.16,2.62-5.21,4.54-1.36,1.22-2.59,2.44-3.43,3.3a9,9,0,0,0-1-.57l-.8-.34c-3.39-1.43-5.58-2.39-6.51-2.85,0-.56.1-1.12.15-1.67v-.07c.1-1.13.2-2.15.27-3.19.19-3.21.21-6.54.2-6.85a3,3,0,0,0-.35-2.32,2.4,2.4,0,0,0-1.6-1.13l-2.68-.53-1.21-.23-.57-.11a8.25,8.25,0,0,0-.95-.13l-.27,0a2.85,2.85,0,0,0-2.7,2.49c0,.14-1.29,3.35-2.25,6.52-.51,1.59-1,3.22-1.33,4.61h-1.07a53.61,53.61,0,0,0-8.09.75c-.75-1.68-1.42-3.11-2.05-4.35-.91-1.86-1.79-3.47-2.23-4.27s-.89-1.56-1-1.74a2.86,2.86,0,0,0-2.65-2.1,2.51,2.51,0,0,0-.79.13c-.19.06-1.35.43-2.58.8l-2.51,1a2.47,2.47,0,0,0-1.38,1.4,3,3,0,0,0,0,2.19c0,.26.16,1,.35,2.05.25,1.47.59,3.19.95,4.72a13.33,13.33,0,0,0,.42,1.39c.32,1,1,3,.47,3.44a24.21,24.21,0,0,1-3.55,2.45l.14.22-.21-.18a27.87,27.87,0,0,0-3.7,2.53l-.77-.55c-.84-.59-2-1.4-3.13-2.15-2.36-1.57-4.89-3.05-5.82-3.58a3.1,3.1,0,0,0-2.11-.82,2.53,2.53,0,0,0-1.78.66,6.8,6.8,0,0,0-.69.73c-.32.37-.78.91-1.19,1.42l-1.72,2.07a2.37,2.37,0,0,0-.54,1.83,3.08,3.08,0,0,0,1.12,2.05c.39.47,2.43,2.94,4.54,5.22,1.26,1.38,2.52,2.66,3.4,3.52-1.11,2.22-3.06,6.2-3.9,8.24-.87-.1-2.76-.3-4.88-.42-2.84-.18-5.78-.22-6.86-.23a3,3,0,0,0-.66-.07,2.73,2.73,0,0,0-2.78,2.05l-.51,2.61c-.11.53-.21,1.05-.29,1.5l-.07.35a8.16,8.16,0,0,0-.12.93,2.62,2.62,0,0,0,.61,1.94,3,3,0,0,0,1.89,1c.56.22,3.51,1.34,6.5,2.27,1.28.41,2.59.78,3.64,1.07l.91.25a36.21,36.21,0,0,0,.58,8.2c.07.3.13.62.2.95-1.19.53-2.78,1.25-4.34,2.05-1.28.61-2.71,1.37-4.27,2.24L323,397a3.07,3.07,0,0,0-1.75,1.4,2.57,2.57,0,0,0-.24,2s.38,1.31.83,2.67c.43,1.07.86,2.17,1,2.44l0,.07a2.72,2.72,0,0,0,2.54,1.58,3,3,0,0,0,1.07-.2c.27,0,1-.17,2-.36,1.31-.21,3-.55,4.73-.93,2-.46,3.71-.91,4.67-1.17a56.57,56.57,0,0,0,4.56,6.81c.21.23.41.49.64.77-.8,1.07-1.79,2.49-2.71,3.9-1.88,2.78-3.59,5.77-3.63,5.85a2.85,2.85,0,0,0-.1,3.9,7.43,7.43,0,0,0,.69.6c.24.22.53.47.86.75l2.65,2.22a2.29,2.29,0,0,0,1.52.53,3,3,0,0,0,2.35-1.14c.29-.23,2.87-2.35,5.24-4.52,1.26-1.18,2.47-2.37,3.5-3.39,1.11.56,6,3,8.24,4-.12,1-.31,2.88-.41,4.81-.22,3.22-.24,6.56-.23,6.87a3.1,3.1,0,0,0,.38,2.32,2.38,2.38,0,0,0,1.6,1.12l3.28.64c.46.09.89.16,1.13.19a5.75,5.75,0,0,0,1,.16h.24a2.8,2.8,0,0,0,2.72-2.49c.31-.81,1.39-3.68,2.28-6.54.45-1.48.93-3.14,1.32-4.57a43.39,43.39,0,0,0,8.18-.55c.31-.07.63-.14,1-.2.73,1.61,1.42,3.08,2,4.36.84,1.68,1.64,3.18,2.25,4.23s.9,1.61,1,1.79a2.89,2.89,0,0,0,2.67,2.07,2.37,2.37,0,0,0,.7-.1l2.66-.83,2.52-1a2.57,2.57,0,0,0,1.38-1.44,3.15,3.15,0,0,0,0-2.26c-.05-.29-.18-1-.33-1.94-.26-1.53-.62-3.25-1-4.71s-.69-3-1.17-4.78c1-.67,5.46-3.53,7.53-5.15l1,.74c.85.6,1.92,1.34,3,2,1.66,1.11,3.75,2.39,5.82,3.58a3.07,3.07,0,0,0,2.1.82,2.54,2.54,0,0,0,1.81-.69,7.79,7.79,0,0,0,.67-.71l.48-.58.71-.85,1.72-2.05a2.45,2.45,0,0,0,.54-1.88,3.11,3.11,0,0,0-1.15-2c-.56-.68-2.52-3.05-4.54-5.21-.33-.36-.76-.75-1.18-1.13-.82-.74-2.19-2-2-2.61a8.09,8.09,0,0,1,.9-1.69,12.39,12.39,0,0,0,.84-1.53c.08-.16.48-1.11,1.09-2.55l.31-.75c.23-.56.45-1.08.62-1.48,1.2.13,2.94.3,4.82.4,3.11.2,6.32.24,6.88.23a3.6,3.6,0,0,0,.66.07,2.72,2.72,0,0,0,2.79-2l.53-2.68c.06-.35.13-.72.2-1.05l.05-.24c0-.18.06-.35.09-.48a8,8,0,0,0,.13-1A2.8,2.8,0,0,0,430.79,388.44Zm-34.54-40.75.75.32a9.23,9.23,0,0,1,1.42.88l.79.58.67-.7c1.35-1.39,2.73-2.73,4-3.88,2.42-2.24,5.08-4.42,5.22-4.54l.17-.18c.21-.29.63-.47.79-.34l2,1.71.7.59.73.61a5.67,5.67,0,0,1,.56.52.38.38,0,0,1,.09.28.89.89,0,0,1-.29.61l-.17.22s-1.72,3-3.59,5.83c-.86,1.28-1.79,2.62-2.77,4l-.4.55-.33.93.53.64A32.77,32.77,0,0,1,412,363c.26.52.56,1.1.91,1.73l.42.74,1.54-.4c1.26-.34,3-.8,4.71-1.19,1.58-.34,3.27-.68,4.63-.92l2-.33.15,0,.26-.08a1,1,0,0,1,.43-.1c.3,0,.36.17.38.23s.51,1.27,1,2.38c.39,1.29.8,2.6.8,2.6a.36.36,0,0,1,0,.24.93.93,0,0,1-.56.4l-.22.09s-.78.43-1.88,1.07-2.59,1.39-4.18,2.18c-2.2,1.1-4.28,2-5.08,2.37l-.82.35.18.88a50.74,50.74,0,0,1,.89,10.32l-.09,1,1.14.28.59.14,1.06.3c1,.29,2.24.64,3.44,1,2.53.79,5.08,1.73,6.38,2.22l.12.05.27.06c.45,0,.73.35.71.62a5.5,5.5,0,0,1-.1.72l-.14.69c-.07.35-.15.74-.21,1.09l-.52,2.67c0,.09-.33.33-.9.2l-.23,0s-3.53,0-6.9-.23c-2.47-.13-4.66-.38-5.49-.47l-.14,0c-.75,0-.75,0-2.29,3.67l-.23.54c-.38.92-.75,1.79-.83,2a10.33,10.33,0,0,1-.74,1.31,9.57,9.57,0,0,0-1.12,2.21c-.54,2,1.24,3.56,2.67,4.86a14.15,14.15,0,0,1,1,1c2.33,2.49,4.49,5.17,4.54,5.22l.19.18a.93.93,0,0,1,.39.61.22.22,0,0,1,0,.18l-1.71,2.05-.73.87-.46.56c-.27.31-.47.5-.51.54-.29.27-.53.22-.94-.2l-.22-.16s-3-1.73-5.83-3.6c-1-.65-1.95-1.31-2.92-2l-.87-.6-.22-.19c-.18-.15-.35-.29-.51-.4l-4.51-3.33a36.76,36.76,0,0,0-24.42-64.18,37,37,0,0,0-33.21,21,36,36,0,0,0-1.64,4l-4-2c1.08-2.36,3.7-8,4.06-8.51l.54-.77-.68-.66c-.62-.6-2.25-2.19-3.88-4-2.08-2.26-4.11-4.71-4.54-5.22l-.16-.16a1,1,0,0,1-.39-.63c0-.12,0-.15,0-.17l1.74-2.09c.41-.51.85-1,1.17-1.4a4.08,4.08,0,0,1,.51-.54c.31-.31.66-.06.93.21l.22.16s3,1.73,5.83,3.6c1,.67,2,1.38,2.93,2l1.42,1,1.08.53.65-.61a22.83,22.83,0,0,1,3.93-2.76,26.94,26.94,0,0,0,3.88-2.69c1.64-1.4.79-4,.15-5.88-.14-.42-.27-.81-.34-1.11-.34-1.5-.68-3.18-.93-4.6-.19-1.11-.32-1.91-.34-2.08l-.09-.31a.87.87,0,0,1,0-.65.3.3,0,0,1,.17-.19l.05,0,2.34-1c1.27-.37,2.56-.79,2.56-.79.25-.07.54.19.65.6l.13.31h0c.12.2.5.86,1,1.78.34.61,1.24,2.25,2.18,4.17s1.8,3.78,2.36,5.06l.35.82.87-.17a48.42,48.42,0,0,1,8.51-.88h1.71l1.06.13.47-1.77c.35-1.37.81-3,1.3-4.51.88-2.92,2-5.89,2.25-6.51l.05-.25c.05-.39.31-.69.56-.7h.07a7.2,7.2,0,0,1,.72.1l.55.11,1.24.24,2.67.52a.24.24,0,0,1,.13.12.94.94,0,0,1,.07.71l0,.27s0,3.56-.21,6.89c-.07,1.07-.17,2.16-.26,3.12l0,.35c-.06.7-.13,1.39-.19,2.11C388.27,344.29,388.27,344.33,396.25,347.69ZM341.83,372.2a34.46,34.46,0,0,1,1.64-4.06,36.41,36.41,0,0,1,32.73-20.66A36.19,36.19,0,0,1,400,410.94l-.21.18a36.32,36.32,0,0,1-23.66,8.82,36.27,36.27,0,0,1-34.36-47.63l.34,0Zm31.38,59.44c-.89,2.85-2,5.7-2.29,6.57a2.32,2.32,0,0,1-2.21,2.09h-.21a7.19,7.19,0,0,1-.92-.16c-.27,0-.68-.11-1.12-.19l-3.29-.64a1.9,1.9,0,0,1-1.25-.88,2.66,2.66,0,0,1-.31-2c0-.37,0-3.69.24-6.89.11-2.06.31-4,.43-5l0-.2-.19-.08c-1.87-.77-6.26-2.94-8.56-4.1l-.17-.09-.13.14c-1.06,1.05-2.31,2.29-3.62,3.5-2.36,2.17-4.93,4.28-5.26,4.56a2.51,2.51,0,0,1-2,1,1.81,1.81,0,0,1-1.18-.4l-2.67-2.24-.84-.73a6.16,6.16,0,0,1-.65-.57,2.34,2.34,0,0,1,.15-3.22c.07-.12,1.77-3.1,3.64-5.86.92-1.41,1.91-2.83,2.71-3.9l.23-.32-.25-.31c-.23-.28-.44-.55-.65-.78a56,56,0,0,1-4.6-6.91l-.1-.19-.2.06c-.91.25-2.75.73-4.86,1.22-1.69.38-3.4.72-4.7.92-1,.2-1.77.32-2.09.38a2.48,2.48,0,0,1-.93.18,2.19,2.19,0,0,1-2.07-1.32c-.11-.27-.53-1.36-1-2.42-.44-1.34-.82-2.64-.82-2.64a2.08,2.08,0,0,1,.19-1.58,2.6,2.6,0,0,1,1.5-1.17l1.78-1c1.56-.87,3-1.62,4.25-2.23,1.61-.83,3.25-1.56,4.44-2.09l-.11-.24.19.2.2-.08,0-.21c-.09-.41-.17-.8-.25-1.17a35.77,35.77,0,0,1-.56-8.28v-.21l-1.32-.36c-1-.29-2.35-.66-3.62-1.07-3-.92-5.91-2-6.53-2.27a2.57,2.57,0,0,1-1.62-.87,2.12,2.12,0,0,1-.48-1.56,8.15,8.15,0,0,1,.11-.87l.07-.36c.08-.44.18-.95.29-1.49l.51-2.61a2.23,2.23,0,0,1,2.26-1.62,2.77,2.77,0,0,1,.6.07c1.13,0,4.06.05,6.89.23,2.29.13,4.29.35,5.05.44l.2,0,.08-.19c.8-2,2.92-6.32,4-8.56l.08-.17-.13-.13c-.88-.86-2.2-2.19-3.51-3.64-2.11-2.27-4.14-4.73-4.56-5.23a2.63,2.63,0,0,1-1-1.74,1.86,1.86,0,0,1,.42-1.43l1.72-2.07c.41-.51.87-1,1.19-1.41a6.63,6.63,0,0,1,.64-.69,2,2,0,0,1,1.42-.52,2.67,2.67,0,0,1,1.8.71c1,.57,3.49,2,5.84,3.61,1.13.74,2.28,1.55,3.11,2.14l1.11.78.16-.14a27.74,27.74,0,0,1,3.79-2.61l.07,0a24.17,24.17,0,0,0,3.62-2.5c.73-.62.24-2.32-.32-4-.17-.51-.32-1-.4-1.33-.36-1.52-.7-3.23-.95-4.69-.18-1-.3-1.78-.36-2.1a2.52,2.52,0,0,1,0-1.85,2,2,0,0,1,1.09-1.11l2.49-1c1.21-.36,2.38-.74,2.59-.81a2.3,2.3,0,0,1,2.77,1.69c.14.23.52.89,1,1.79s1.32,2.4,2.23,4.24c.64,1.29,1.34,2.77,2.12,4.53l.08.19.21,0a52.46,52.46,0,0,1,8.19-.78h1.48l-.09,1.14h-1.4a49.4,49.4,0,0,0-8.62.88l-.45.09-.19-.42c-.56-1.28-1.42-3.21-2.36-5.08s-1.85-3.58-2.2-4.2c-.67-1.19-.93-1.65-1.05-1.83h0l-.07-.18a1.12,1.12,0,0,0-1.32-.93s-1.28.41-2.57.79L355,332h0a.85.85,0,0,0-.47.48,1.41,1.41,0,0,0,0,1l.06.21c0,.18.15,1,.35,2.09.25,1.43.59,3.12.93,4.63.08.33.21.73.38,1.22.57,1.72,1.35,4.07,0,5.24a26.31,26.31,0,0,1-3.84,2.66,22.54,22.54,0,0,0-4,2.81l-.38.36-.71-.34-1.4-1c-.89-.63-1.89-1.34-2.93-2-2.86-1.89-5.84-3.59-5.84-3.59l-.16-.12c-.57-.59-1.19-.64-1.65-.2-.06.06-.27.26-.55.59s-.76.89-1.17,1.4l-1.74,2.09a.7.7,0,0,0-.15.56,1.47,1.47,0,0,0,.57,1l.14.13c.39.47,2.43,2.93,4.52,5.2,1.64,1.8,3.27,3.4,3.9,4l.35.34-.28.4c-.42.61-3.44,7.13-4.21,8.82l-.11.24,2.5,1.25-3.31-.42c-.65-.08-2.95-.35-5.56-.49-3.42-.22-6.88-.23-6.89-.23l-.17,0c-.56-.16-1.39.07-1.49.63,0,0-.27,1.34-.51,2.63-.12.53-.21,1-.29,1.47l-.07.36c-.08.45-.1.74-.1.74a1,1,0,0,0,.23.75,1.4,1.4,0,0,0,.91.47l.22.05c.57.22,3.54,1.34,6.48,2.26,1.2.38,2.38.72,3.58,1.06l1.07.29a4.64,4.64,0,0,1,.74.19l.41.14,0,.44a34,34,0,0,0,.5,8.66c.12.56.25,1.19.37,1.83l.09.44-1.13.51c-1.18.53-2.79,1.25-4.38,2.07-1.23.59-2.64,1.33-4.19,2.2l-2,1.1a1.39,1.39,0,0,0-.85.63.92.92,0,0,0-.09.7s.38,1.28.8,2.57,1,2.44,1,2.45a1,1,0,0,0,.93.54,1.55,1.55,0,0,0,.59-.12l.18-.06s.87-.13,2.12-.37,3-.53,4.64-.91c2.46-.57,4.62-1.16,5.44-1.38l.44-.12.22.4a51.7,51.7,0,0,0,4.8,7.3c.19.22.42.51.67.83l.39.48.4.37-.26.46-.49.68c-.78,1-1.76,2.45-2.69,3.86-1.75,2.59-3.34,5.35-3.63,5.86l-.11.15a1.19,1.19,0,0,0-.16,1.65,5.07,5.07,0,0,0,.56.48c.29.27.56.5.86.75L342,428c.39.33,1.19.07,1.51-.41l.16-.17c.67-.55,3-2.5,5.22-4.51,1.53-1.41,3-2.86,4-3.85l.35-.35.43.24c.64.44,7.72,3.78,9.22,4.41l-.23.83.88.14c-.11.89-.34,3-.47,5.31-.22,3.35-.23,6.88-.23,6.88l0,.19a1.44,1.44,0,0,0,.15,1.12.73.73,0,0,0,.49.36l3.41.66,1,.18.57.11.07.63.53,0v-.61a1.22,1.22,0,0,0,.81-1.08l.06-.24c.31-.81,1.39-3.66,2.27-6.49.45-1.48.92-3.13,1.3-4.51l0-.14c.07-.26.13-.48.18-.68l.11-.45H374l.39,2.08C374,428.9,373.6,430.35,373.21,431.64Zm.11-6.66-.21.87c-.05.2-.11.42-.17.67l0,.14c-.38,1.38-.85,3-1.3,4.49-.87,2.81-2,5.66-2.26,6.46l-.08.35a.68.68,0,0,1-.54.66h-.11a6.4,6.4,0,0,1-.71-.12l-1-.18-3.4-.66s-.09,0-.15-.13a.93.93,0,0,1-.08-.73l0-.25s0-3.55.23-6.89c.14-2.53.42-4.87.5-5.53l0-.25-.8-.13.21-.73-.24-.08c-.65-.22-8.65-4-9.34-4.46l-.81-.44-.67.67c-1,1-2.39,2.39-3.91,3.8-2.18,2-4.53,3.94-5.2,4.49l-.23.25a.87.87,0,0,1-.63.37.17.17,0,0,1-.12,0l-2.65-2.21c-.29-.25-.56-.48-.86-.76a6,6,0,0,1-.53-.45c-.19-.2-.12-.61.19-.93l.16-.21c.3-.53,1.88-3.26,3.63-5.85.92-1.4,1.89-2.8,2.67-3.83l.51-.71.48-.86-.68-.62-.38-.48-.67-.81a53.53,53.53,0,0,1-4.74-7.22l-.42-.77-.85.24c-.81.22-3,.81-5.41,1.37-1.64.38-3.32.71-4.61.91s-2.08.36-2.14.37l-.25.08a1,1,0,0,1-.41.09c-.13,0-.36,0-.43-.21,0,0-.49-1.27-1-2.43s-.79-2.54-.79-2.54a.35.35,0,0,1,.05-.29.93.93,0,0,1,.58-.4l2.06-1.13c1.54-.86,2.94-1.6,4.17-2.19,1.58-.81,3.19-1.53,4.4-2.07l1.48-.66-.18-.87c-.12-.63-.25-1.27-.37-1.82a33.34,33.34,0,0,1-.49-8.52l.06-.84-.79-.28a6.4,6.4,0,0,0-.79-.21l-1.06-.28c-1.19-.34-2.36-.67-3.56-1.06-2.93-.91-5.88-2-6.5-2.27l-.27-.06a.85.85,0,0,1-.59-.28.48.48,0,0,1-.11-.37s0-.27.09-.68l.07-.38c.08-.42.17-.91.29-1.44.24-1.29.5-2.6.51-2.64a.66.66,0,0,1,.59-.25,1,1,0,0,1,.27,0l.25,0s3.48,0,6.89.23c2.6.14,4.88.41,5.52.49l5.51.69a36.79,36.79,0,0,0,34.9,48.23A36.86,36.86,0,0,0,400,411.63l2.86,3.51c-2.13,1.49-7.34,5-7.7,5.22l-.89.38.26.93c.57,2,1,3.82,1.37,5.45.34,1.45.69,3.13.94,4.59.21,1.28.37,2.15.38,2.17l.07.21a.87.87,0,0,1,0,.65.38.38,0,0,1-.17.21l-2.41,1-2.67.81a.79.79,0,0,1-.54-.61l-.1-.24c0-.06-.46-.78-1.06-1.89s-1.39-2.51-2.2-4.12c-.92-1.92-1.79-3.83-2.36-5.1l-.36-.78-.84.15c-.68.12-1.32.25-1.88.37A41.77,41.77,0,0,1,375,425h-.55Zm59.33-32.72c0,.14-.06.3-.1.48l0,.23c-.07.34-.14.71-.21,1.07l-.52,2.68a2.21,2.21,0,0,1-2.27,1.59,3.49,3.49,0,0,1-.61-.06c-.61,0-3.8,0-6.9-.23-2-.11-3.8-.29-5-.42l-.2,0-.08.18-.7,1.66-.31.75c-.47,1.11-1,2.37-1.08,2.54a11.9,11.9,0,0,1-.84,1.51,8.27,8.27,0,0,0-.93,1.78c-.26.95,1.09,2.17,2.17,3.15a13.69,13.69,0,0,1,1.15,1.1c2,2.15,4,4.51,4.56,5.23a2.63,2.63,0,0,1,1,1.71,1.9,1.9,0,0,1-.41,1.47l-1.72,2c-.26.29-.5.59-.72.85l-.47.58c-.36.41-.63.66-.64.67a2.09,2.09,0,0,1-1.44.54,2.65,2.65,0,0,1-1.79-.71c-2.11-1.22-4.18-2.5-5.84-3.61-1-.68-2.1-1.42-3-2l-1.12-.8-.12-.24-.26.2c-1.71,1.36-5.72,4-7.81,5.34l-.17.11,0,.19c.51,1.82.9,3.44,1.22,4.94s.71,3.17,1,4.69c.15.94.28,1.65.33,1.95l0,.11a2.57,2.57,0,0,1,0,1.85,2.06,2.06,0,0,1-1.09,1.15l-2.5,1-2.64.82a1.61,1.61,0,0,1-.54.08,2.42,2.42,0,0,1-2.19-1.76c-.13-.23-.52-.9-1-1.83s-1.41-2.54-2.25-4.2c-.64-1.33-1.35-2.86-2.11-4.55l-.09-.19-.21,0-1.18.25a43.31,43.31,0,0,1-8.11.54h-.16l-.21.06,0-1.21H375a42.21,42.21,0,0,0,7.88-.52c.56-.12,1.19-.25,1.86-.37l.44-.08.18.41c.57,1.27,1.44,3.19,2.37,5.11.82,1.63,1.61,3.1,2.22,4.15s1,1.84,1.05,1.87l.07.17a1.21,1.21,0,0,0,1.07,1l2.82-.84,2.44-1a.91.91,0,0,0,.46-.51,1.34,1.34,0,0,0,0-1l-.05-.16s-.16-.85-.36-2.13c-.26-1.48-.61-3.16-.95-4.61-.35-1.65-.8-3.44-1.37-5.48l-.14-.49.49-.21c.41-.24,6-4,8-5.42l.24-.16-2.5-3.06,3.65,2.69.53.42,1.07.77c1,.69,1.94,1.35,2.93,2,2.83,1.88,5.84,3.59,5.84,3.59l.16.12c.59.6,1.18.65,1.66.18a6.33,6.33,0,0,0,.54-.58l.47-.56.72-.87,1.72-2a.72.72,0,0,0,.15-.59,1.45,1.45,0,0,0-.58-1l-.14-.12s-2.23-2.76-4.54-5.23c-.3-.33-.69-.68-1.07-1-1.32-1.19-3-2.68-2.5-4.31a9,9,0,0,1,1.06-2.09,10.84,10.84,0,0,0,.76-1.36c.09-.17.42-1,.84-2l.23-.54c1.4-3.35,1.41-3.35,1.77-3.35l.11,0c.83.09,3,.34,5.52.47,3.37.22,6.89.22,6.89.23l.17,0c.6.15,1.42-.07,1.52-.62l.52-2.67c.07-.36.14-.74.21-1.08l.14-.7a6.91,6.91,0,0,0,.11-.78,1.18,1.18,0,0,0-1.15-1.18l-.29-.09c-1.3-.49-3.86-1.44-6.41-2.23-1.2-.38-2.41-.73-3.45-1l-1.08-.31a5,5,0,0,1-.59-.14l-.7-.17.05-.52a51.77,51.77,0,0,0-.9-10.45l-.09-.46.43-.19c.79-.34,2.89-1.27,5.09-2.38,1.6-.79,3.14-1.58,4.22-2.19l1.84-1.06.16-.06a1.37,1.37,0,0,0,.85-.64.82.82,0,0,0,.08-.66l-.8-2.62c-.47-1.13-1-2.4-1-2.4a.89.89,0,0,0-.88-.57,1.61,1.61,0,0,0-.62.14l-.19.06h0l-.11,0-2,.33c-1.37.24-3.07.58-4.66.93s-3.46.85-4.73,1.18l-1.14.31-.22-.39q-.51-.93-.9-1.71a33.25,33.25,0,0,0-4.9-6.84l-.33-.4.17-.53c.13-.16.25-.34.39-.53,1-1.37,1.92-2.72,2.78-4,1.88-2.82,3.6-5.83,3.59-5.83l.12-.17a1.37,1.37,0,0,0,.43-1,.91.91,0,0,0-.24-.65c-.08-.08-.28-.29-.6-.56l-.73-.61-.7-.59-2.05-1.7c-.39-.34-1.18-.1-1.54.4l-.12.14c-.11.09-2.79,2.27-5.22,4.53-1.26,1.15-2.65,2.5-4,3.9l-.34.36-.41-.29a9.29,9.29,0,0,0-1.52-.94l-.77-.33c-7.38-3.11-7.62-3.28-7.59-3.85s.13-1.4.19-2.09l0-.35c.1-1,.2-2.05.27-3.14.21-3.34.21-6.88.21-6.88l0-.2a1.4,1.4,0,0,0-.13-1.1.73.73,0,0,0-.48-.36l-2.67-.53-1.23-.23-.56-.11a7.5,7.5,0,0,0-.83-.11,1.21,1.21,0,0,0-1.14,1.13l-.05.21c-.22.56-1.35,3.55-2.24,6.48-.49,1.55-1,3.16-1.31,4.53l-.34,1.33-.3,0-.31-2.2c.33-1.23.74-2.61,1.17-4,.95-3.16,2.18-6.35,2.25-6.54a2.34,2.34,0,0,1,2.17-2.1l.32,0c.1,0,.37,0,.82.12l.57.12,1.22.22,2.67.53a1.87,1.87,0,0,1,1.25.89,2.6,2.6,0,0,1,.28,2c0,.37,0,3.69-.21,6.89-.07,1-.17,2-.27,3.17v.07c-.06.62-.12,1.23-.17,1.85v.18l.15.08c.84.43,3.1,1.43,6.71,2.95l.8.34a8.48,8.48,0,0,1,1.13.64l.18.12.16-.16c.83-.85,2.13-2.13,3.55-3.43,2.06-1.91,4.32-3.8,5.24-4.56a2.53,2.53,0,0,1,2-1,1.81,1.81,0,0,1,1.19.41l2.05,1.71.71.59.73.61a6.91,6.91,0,0,1,.67.63,2,2,0,0,1,.57,1.44,2.62,2.62,0,0,1-.73,1.77c-.3.52-1.88,3.25-3.61,5.83-1,1.55-2,3-2.7,3.91l-.12.16-.12.17.14.16a34.4,34.4,0,0,1,4.77,6.75c.17.35.36.72.56,1.09l.08.14h.22c1.13-.3,3-.8,4.85-1.22,1.56-.34,3.27-.68,4.72-.93.83-.15,1.49-.25,1.84-.31L426,361a2.46,2.46,0,0,1,.94-.18,2.13,2.13,0,0,1,2,1.28s.5,1.25,1,2.43l.82,2.67a2,2,0,0,1-.17,1.54,2.62,2.62,0,0,1-1.51,1.19c-.22.12-.9.5-1.78,1-1.11.62-2.67,1.43-4.28,2.22-1.88.94-3.64,1.74-4.53,2.14l-.19.08,0,.21a52.09,52.09,0,0,1,.8,9.45l.06.22,1.47.4c1.05.3,2.25.64,3.44,1,3.17,1,6.33,2.2,6.52,2.27a2.32,2.32,0,0,1,2.12,2.4A8.17,8.17,0,0,1,432.65,392.26Z" transform="translate(-195.89 -73)"/><path class="cls-2" d="M376.18,378a5.67,5.67,0,1,0,5.67,5.67A5.67,5.67,0,0,0,376.18,378Zm0,10.8a5.14,5.14,0,1,1,5.13-5.13A5.14,5.14,0,0,1,376.18,388.83Z" transform="translate(-195.89 -73)"/><path class="cls-2" d="M376.18,375.64a8.06,8.06,0,1,0,8.05,8.06A8.07,8.07,0,0,0,376.18,375.64Zm0,15.58a7.53,7.53,0,1,1,7.52-7.52A7.53,7.53,0,0,1,376.18,391.22Z" transform="translate(-195.89 -73)"/><path class="cls-2" d="M406.5,264.17a14.09,14.09,0,1,0,14.09,14.09A14.11,14.11,0,0,0,406.5,264.17Zm0,27.68a13.59,13.59,0,1,1,13.59-13.59A13.61,13.61,0,0,1,406.5,291.85Z" transform="translate(-195.89 -73)"/><path class="cls-2" d="M406.5,258.05a20.21,20.21,0,1,0,20.21,20.21A20.23,20.23,0,0,0,406.5,258.05Zm0,39.92a19.71,19.71,0,1,1,19.71-19.71A19.74,19.74,0,0,1,406.5,298Z" transform="translate(-195.89 -73)"/><path class="cls-2" d="M432.51,249.37a38.92,38.92,0,0,0-54.91,2.87l.37.34a38.38,38.38,0,0,1,57,51.36l.37.34A38.93,38.93,0,0,0,432.51,249.37Z" transform="translate(-195.89 -73)"/><g class="cls-3"><path class="cls-2" d="M373,101.62a10.48,10.48,0,0,0-2.36-.27,10.35,10.35,0,0,0-5.33,19.23l.13.09c.25.14.5.27.74.38a3.89,3.89,0,0,0,.41.18l.28.11.16.07.66.22.64.17A10.36,10.36,0,0,0,373,101.62Zm7.06,12.27a9.57,9.57,0,0,1-9.39,7.48,9.47,9.47,0,0,1-2.18-.25l-.6-.17-.61-.2-.14-.06-.31-.12a2.41,2.41,0,0,1-.33-.15c-.21-.09-.4-.19-.6-.3l-.13-.08a9.65,9.65,0,1,1,14.29-6.15Z" transform="translate(-195.89 -73)"/><path class="cls-2" d="M432.4,127.79c-.33-1.58-1.13-3.26-2-3.26a.41.41,0,0,0-.19,0l-.8.23c-3.39,1-7.37.6-11.6-1.14l-.13,0-.2.07v0a1.42,1.42,0,0,1-.13-.34c-1-2.25-1.65-3.75-1.65-3.75s-.16-.41-.49-1-.86-1.5-1.44-2.62a3,3,0,0,1-.2-.34l0,0v0a27.65,27.65,0,0,1,2.46-5.74,14.48,14.48,0,0,1,4-4.41l.33-.23a2.27,2.27,0,0,0,.31-.21.63.63,0,0,0,.33-.41c.19-.73-.62-2.25-1.39-3.35l-1.64-2c-.85-1-2.12-2.18-2.91-2.18a.57.57,0,0,0-.45.18c-.18.18-.38.39-.62.59a13.7,13.7,0,0,1-5,2.84,21,21,0,0,1-6,1.16h-.16l-.12.14a2.43,2.43,0,0,0-.24-.23,25,25,0,0,0-1.9-1.72l-.39-.32L399.4,99s-.32-.26-.88-.72c-.14-.1-.28-.22-.43-.34a16.07,16.07,0,0,0-2-1.42,3.28,3.28,0,0,0-.38-.27v-.07a25,25,0,0,1-.27-6.24,14.09,14.09,0,0,1,1.65-5.67l.15-.22c.12-.18.23-.35.32-.52a.62.62,0,0,0,.06-.53c-.21-.75-1.55-1.67-2.75-2.29l-2.3-1.17a8.3,8.3,0,0,0-2.92-.75c-.69,0-.92.26-1,.5a4.71,4.71,0,0,1-.28.8,14,14,0,0,1-3.28,4.74,25.51,25.51,0,0,1-4.87,3.58l-.12.06-.06.21h0l-.29-.07-4-1.14s-1.6-.32-4.12-.76a1.55,1.55,0,0,1-.29,0h0l-.05-.08a26.72,26.72,0,0,1-3-5.45,15.09,15.09,0,0,1-1-5.88c0-.11,0-.23,0-.35s.05-.35.06-.5a.61.61,0,0,0-.17-.5,5.37,5.37,0,0,0-3.45-.91h-2.59c-1.4,0-3,.3-3.5.87a.59.59,0,0,0-.15.51c.05.29.08.57.1.81.19,3.51-1.08,7.25-3.75,11.11l-.08.11,0,.19-.33,0a25.57,25.57,0,0,0-2.82.54l-.15,0c-.72.15-1.12.22-1.14.22l-1.09.26-.27.06a23.35,23.35,0,0,0-2.64.75l-.35.11-.08,0a22.88,22.88,0,0,1-5.08-3.69,13.76,13.76,0,0,1-3.4-4.81c0-.13-.09-.26-.13-.39a4,4,0,0,1-.13-.41c-.07-.23-.29-.5-1-.5a8.09,8.09,0,0,0-2.93.81l-1.16.52-1.19.56c-1.21.64-2.51,1.61-2.69,2.35a.64.64,0,0,0,.07.52l.43.72a14.1,14.1,0,0,1,1.69,5.56,18,18,0,0,1,.06,3c-.06,1.22-.15,2.2-.28,3.09l0,.13.1.16-.13.09-.18.13-1.5,1-.94.66c-.58.44-.89.71-.89.71s-1.27,1-3.14,2.66l-.32.28h-.07c-4.83-.24-8.64-1.6-11.34-4.07a3.65,3.65,0,0,1-.55-.56c-.18-.18-.74-.27-1.56.23A8.69,8.69,0,0,0,307,99.06l-1.58,2c-1,1.23-1.64,2.57-1.5,3.27a.63.63,0,0,0,.31.46,3.75,3.75,0,0,1,.7.46c2.87,2,5,5.29,6.29,9.77l0,.12.19.13v0a1.83,1.83,0,0,1-.18.31c-1.14,2.2-1.93,3.66-1.94,3.68a11.19,11.19,0,0,1-.52,1c-.13.31-.28.71-.47,1.17s-.41,1-.65,1.61l-.09.25-.05.12h0c-5,1.94-8.57,2.3-11.94,1.3a6.83,6.83,0,0,1-.82-.29l-.18,0c-.86,0-1.61,1.75-2,3.23,0,0-.19.64-.33,1.26s-.25,1.26-.25,1.26c-.27,1.35-.34,3,.12,3.59a.63.63,0,0,0,.45.26,4.81,4.81,0,0,1,.65.08l.21,0c3.38.56,6.46,2.44,10,6.09l.09.1h.17a2.93,2.93,0,0,1,0,.37c0,.66-.07,1.26-.11,1.78s-.06.85-.07,1.21c0,.73,0,1.11,0,1.15s.05,1.64.11,4.16l0,.31v.06l0,.06c-3.11,3.55-6.62,5.75-10.14,6.36-.32,0-.63.08-.86.12q-.68,0-.81,1.35a10.23,10.23,0,0,0,.24,2.49l.56,2.51c.37,1.63,1.17,3.28,2,3.28l.18,0,.41-.13.43-.14c3.33-1,7.24-.62,11.59,1.13l.11.05.19-.06c.06.13.11.26.16.34l1.63,3.79.49,1.06c.37.63.87,1.51,1.47,2.6l.2.37,0,.07a25.64,25.64,0,0,1-2.46,5.73,14.5,14.5,0,0,1-3.92,4.38l-.23.12-.55.31a.66.66,0,0,0-.29.46c-.14.78.67,2.25,1.43,3.29l1.64,2c.82,1,2.06,2.17,2.85,2.17a.61.61,0,0,0,.47-.19,4.83,4.83,0,0,1,.61-.58,14.78,14.78,0,0,1,5-2.88,23.85,23.85,0,0,1,6-1.13H322l.14-.14a2.61,2.61,0,0,1,.23.24,21.1,21.1,0,0,0,2,1.74l1.19,1s.31.26.91.73l.1.08c.56.44,1.32,1.05,2.33,1.71l.33.2v.08a22.5,22.5,0,0,1,.28,6.27,13.93,13.93,0,0,1-1.69,5.64l-.06.12a5.05,5.05,0,0,0-.34.61.59.59,0,0,0-.11.51c.15.72,1.49,1.68,2.75,2.31l2.33,1.16a8,8,0,0,0,2.89.77c.7,0,.93-.28,1-.5s.18-.53.29-.77a13.94,13.94,0,0,1,3.29-4.77,27.08,27.08,0,0,1,4.84-3.61l.11-.07.06-.18a2.42,2.42,0,0,1,.35.12c2.38.65,4,1.1,4,1.11l4,.71c.17,0,.32.08.47.11l0,0a25.75,25.75,0,0,1,2.91,5.49,13.67,13.67,0,0,1,1,5.9,6,6,0,0,1-.11.81.68.68,0,0,0,.17.52c.44.52,1.83.89,3.47.92h0l2.57,0c1.29,0,3-.28,3.49-.88a.61.61,0,0,0,.16-.5c0-.14,0-.28-.05-.43s0-.27-.05-.38c-.18-3.48,1.08-7.21,3.75-11.09l.08-.11,0-.21h.1l.25,0a18,18,0,0,0,2.3-.41l.68-.14c.71-.14,1.1-.25,1.1-.25l1.11-.26a20.29,20.29,0,0,0,2.91-.77l.4-.13,0,0A23.83,23.83,0,0,1,385,205.2a14.37,14.37,0,0,1,3.39,4.85c.1.28.18.52.26.81s.33.48,1,.48a7.82,7.82,0,0,0,2.9-.8l1.16-.55c.61-.25,1.16-.55,1.19-.56,1.19-.66,2.53-1.62,2.7-2.34a.59.59,0,0,0-.09-.52c-.12-.18-.23-.36-.34-.55l-.1-.18a14.28,14.28,0,0,1-1.67-5.52,19.77,19.77,0,0,1,0-3,24,24,0,0,1,.28-3.06l0-.14-.12-.17.29-.19c1-.71,1.82-1.31,2.45-1.72s.88-.74.88-.75,1.31-1.07,3.19-2.67l.27-.26h.07c4.85.26,8.65,1.61,11.3,4l.46.43.15.15c.26.35.81.3,1.54-.21a8.34,8.34,0,0,0,1.82-1.75l1.59-2c1-1.22,1.63-2.56,1.51-3.26a.62.62,0,0,0-.29-.46l-.75-.48c-2.85-2-5-5.41-6.28-9.84l0-.15-.17-.08.1-.14.1-.15c1.1-2.2,1.88-3.62,1.91-3.67a9.79,9.79,0,0,1,.5-1c.13-.29.26-.63.41-1s.45-1.11.75-1.81a2,2,0,0,1,.13-.36l.07,0a22.47,22.47,0,0,1,8.21-1.81,13.25,13.25,0,0,1,3.71.51c.23.07.47.16.69.24l.11,0a.57.57,0,0,0,.22,0c1.08,0,1.88-2.88,2-3.19a11.5,11.5,0,0,0,.35-1.31c.11-.62.24-1.22.24-1.23a5.71,5.71,0,0,0-.11-3.56.68.68,0,0,0-.5-.3,3.88,3.88,0,0,1-.79-.1c-3.42-.56-6.59-2.49-10-6.08l-.09-.1-.21,0a2.8,2.8,0,0,1,.05-.36l0-.75c.06-.91.1-1.67.13-2.28s0-1.13,0-1.13,0-1.67-.11-4.12a3.07,3.07,0,0,0,0-.42l.05,0c3.24-3.63,6.67-5.77,10.19-6.35a7.78,7.78,0,0,1,.81-.1c.31,0,.71-.25.81-1.37a9.39,9.39,0,0,0-.25-2.5Zm.12,5a5.88,5.88,0,0,1-.14.73c-.28,0-.61.06-.9.1-3.64.61-7.18,2.79-10.51,6.48l-.38,0,.06.53a3.73,3.73,0,0,1,0,.47c.09,2.47.11,4.12.11,4.13s0,.41,0,1.1-.07,1.34-.13,2.25l0,.69a3.4,3.4,0,0,0-.07.46l0,.26-.05.36.67.07c3.45,3.65,6.71,5.62,10.24,6.19a3,3,0,0,0,.83.1c.16.13.38,1.18,0,3,0,0-.13.61-.24,1.24a11.3,11.3,0,0,1-.33,1.24,6,6,0,0,1-1.25,2.7l-.12-.05-.73-.25a14.06,14.06,0,0,0-3.92-.54,23.23,23.23,0,0,0-8.38,1.82l-.31,0-.12.22a3.83,3.83,0,0,0-.26.65c-.29.66-.53,1.26-.74,1.79l-.39.95a8.18,8.18,0,0,0-.5,1h0s-.81,1.47-1.88,3.61l-.07.1a3,3,0,0,0-.34.56l-.13.31.52.26c1.31,4.51,3.56,8,6.52,10.07l.73.46c.09.19-.2,1.32-1.35,2.71l-1.6,2a7.68,7.68,0,0,1-1.66,1.61,1.64,1.64,0,0,1-.63.32l-.18-.17a5.22,5.22,0,0,0-.48-.46c-2.75-2.49-6.65-3.89-11.59-4.19l-.24-.24-.26.22a6,6,0,0,0-.5.45c-1.88,1.61-3.15,2.65-3.17,2.67s-.31.29-.83.7-1.48,1-2.44,1.71l-.58.38-.31.2.38.53a23.34,23.34,0,0,0-.27,3,21.15,21.15,0,0,0,0,3.08,15,15,0,0,0,1.76,5.8l.11.18a3.38,3.38,0,0,0,.35.54c0,.22-.72,1-2.36,1.9a11.83,11.83,0,0,1-1.13.54l-1.18.55a7,7,0,0,1-2.6.74c-.23,0-.33,0-.32,0-.09-.28-.16-.55-.28-.85a15.07,15.07,0,0,0-3.55-5.1,24.72,24.72,0,0,0-5.1-3.72l-.13-.43-.38.19a4,4,0,0,1-.61.22,18.14,18.14,0,0,1-2.84.75l-1.15.27s-.38.11-1.05.24l-.71.15a18.21,18.21,0,0,1-2.22.39l-.23,0a3.38,3.38,0,0,0-.54.09l-.29.09.09.57c-2.71,4-4,7.8-3.79,11.44,0,.13,0,.26,0,.38a2.46,2.46,0,0,0,.06.4c-.1.17-1.1.59-3,.63l-2.54,0a5.88,5.88,0,0,1-2.95-.62c.05-.31.08-.59.11-.89a14.39,14.39,0,0,0-1-6.19,26.38,26.38,0,0,0-2.91-5.51l.05-.36-.35-.05a4.45,4.45,0,0,1-.69-.14c-2.38-.41-4-.71-4-.71s-1.6-.47-3.92-1.09a4.86,4.86,0,0,0-.58-.2l-.44-.13-.2.59a26.29,26.29,0,0,0-4.86,3.64,14.53,14.53,0,0,0-3.45,5,6.3,6.3,0,0,0-.28.78.83.83,0,0,1-.36.06,7.58,7.58,0,0,1-2.59-.7l-2.32-1.16a5.55,5.55,0,0,1-2.37-1.8h0l.36-.63.07-.12a14.57,14.57,0,0,0,1.77-5.93,22.78,22.78,0,0,0-.25-6.32l.2-.29-.28-.2c-.22-.16-.41-.29-.61-.41a27.66,27.66,0,0,1-2.26-1.66l-.1-.08-.91-.72-1.19-1a20.76,20.76,0,0,1-1.88-1.68,3.83,3.83,0,0,0-.29-.28l-.21-.21-.24-.26-.46.45a24.44,24.44,0,0,0-6,1.16,15.36,15.36,0,0,0-5.22,3,3.78,3.78,0,0,0-.64.61c-.3,0-1.24-.61-2.31-1.92l-1.63-2a5.69,5.69,0,0,1-1.32-2.72l.52-.3.26-.14a15.16,15.16,0,0,0,4.15-4.61,25.66,25.66,0,0,0,2.5-5.79l.26-.22-.21-.4c-.08-.16-.18-.33-.25-.46-.6-1.09-1.1-2-1.46-2.59l-2.11-4.82a4.23,4.23,0,0,1-.23-.57l-.1-.33-.61.18c-4.45-1.78-8.5-2.16-11.94-1.12l-.46.15-.34.13c-.21,0-.91-.94-1.31-2.73l-.57-2.5a9.67,9.67,0,0,1-.22-2.29c.05-.5.15-.7.18-.71.26-.05.55-.09.88-.13,3.67-.63,7.28-2.86,10.47-6.46h.43l-.07-.42c0-.11,0-.23,0-.35s0-.24,0-.31c-.06-2.47-.11-4.11-.11-4.11s0-.41,0-1.15c0-.33,0-.72.07-1.16s.08-1.13.11-1.74c0-.16,0-.33.06-.51l.05-.61-.61,0c-3.59-3.7-6.76-5.61-10.27-6.19l-.21,0a3.34,3.34,0,0,0-.64-.07c-.15-.14-.36-1.22,0-3,0,0,.13-.62.25-1.25s.32-1.2.32-1.22a5.87,5.87,0,0,1,1.26-2.74,6.83,6.83,0,0,0,.86.3,13.85,13.85,0,0,0,3.94.56,23.19,23.19,0,0,0,8.29-1.81l.32.19L308,124c.07-.15.12-.29.17-.42l.09-.23.65-1.62c.19-.46.34-.86.45-1.13.35-.63.52-1,.52-1s.81-1.5,1.9-3.62a2.8,2.8,0,0,0,.21-.34,1.5,1.5,0,0,1,.15-.25l.22-.29-.57-.39c-1.36-4.57-3.55-7.95-6.5-10a3.44,3.44,0,0,0-.75-.48,4.67,4.67,0,0,1,1.35-2.71l1.58-2a7.85,7.85,0,0,1,1.66-1.6c.47-.29.68-.31.66-.36a4.1,4.1,0,0,0,.62.63c2.77,2.53,6.66,4,11.58,4.22l.25.37.3-.33a5.39,5.39,0,0,1,.5-.47c1.88-1.62,3.14-2.65,3.14-2.66s.31-.26.86-.69c.25-.18.56-.4.92-.64l1.51-1,.17-.12a3.57,3.57,0,0,0,.43-.34l.22-.2-.29-.45c.12-.87.21-1.84.27-3a19.35,19.35,0,0,0-.06-3.06,14.65,14.65,0,0,0-1.79-5.84l-.42-.7c0-.2.68-1,2.33-1.91l1.17-.55,1.14-.52a7.66,7.66,0,0,1,2.65-.75c.2,0,.28,0,.29,0s.09.28.13.42.09.24.14.39a14.49,14.49,0,0,0,3.58,5.09,23.61,23.61,0,0,0,5.09,3.73l.1.36,1-.3a24.67,24.67,0,0,1,2.6-.74l.27-.06,1.06-.25s.42-.07,1.15-.22l.17,0a21,21,0,0,1,2.73-.53,6.45,6.45,0,0,0,.69-.06l.35,0-.09-.62c2.72-4,4-7.81,3.8-11.45a3.94,3.94,0,0,0-.12-.81c.1-.17,1.11-.6,3-.63h2.59a5.15,5.15,0,0,1,2.92.64c0,.16,0,.31-.05.47s0,.26-.05.41a15.92,15.92,0,0,0,1,6.16,27.14,27.14,0,0,0,3,5.49l-.07.45h.4a2.48,2.48,0,0,1,.27,0,1.25,1.25,0,0,0,.34,0c2.43.44,4,.75,4,.75l4,1.14.3.07.36.09.31.06.18-.56a25.4,25.4,0,0,0,4.89-3.61,14.63,14.63,0,0,0,3.43-5,3.39,3.39,0,0,0,.28-.83.84.84,0,0,1,.36,0,7.61,7.61,0,0,1,2.62.68l2.28,1.16c1.66.86,2.39,1.66,2.41,1.85l-.3.48-.17.25a14.94,14.94,0,0,0-1.75,6A25.53,25.53,0,0,0,395,96.2l-.14.32.23.16.21.14c.11.08.24.16.39.28a16.16,16.16,0,0,1,1.95,1.4l.43.34.88.72s.34.27.86.65l.37.31a22.22,22.22,0,0,1,1.87,1.69,2.39,2.39,0,0,1,.23.22c.1.1.2.2.31.29l.28.22.38-.47a21.63,21.63,0,0,0,6-1.19,14.27,14.27,0,0,0,5.24-3,5,5,0,0,0,.61-.6,5.66,5.66,0,0,1,2.38,1.93l1.61,1.94a5.63,5.63,0,0,1,1.27,2.72c-.11.09-.23.16-.34.24l-.36.24a15.23,15.23,0,0,0-4.21,4.62,27.45,27.45,0,0,0-2.48,5.74l-.32.17.19.32c0,.08.09.17.14.26s.15.27.21.36c.57,1.11,1.09,2,1.43,2.61a10.67,10.67,0,0,1,.46,1s.64,1.5,1.64,3.72c0,.13.09.25.14.38a2.09,2.09,0,0,1,.11.3l.11.36.62-.24c4.33,1.76,8.43,2.14,11.93,1.12l.79-.24c.21.05.92,1,1.29,2.7l.57,2.51A8.64,8.64,0,0,1,432.52,132.74Z" transform="translate(-195.89 -73)"/><path class="cls-2" d="M331.87,127.13l-.43-.09h-.13v0a10.51,10.51,0,0,0-7.42,1.53,1.74,1.74,0,0,1-.2.13l-.1.07c-.14.1-.28.2-.41.31a6.38,6.38,0,0,0-.61.52l-.1.07a10.5,10.5,0,0,0-3,5.24,7.88,7.88,0,0,0-.17,1,.27.27,0,0,0,0,.19,5.64,5.64,0,0,0-.08.93,2.91,2.91,0,0,0,0,.3c0,.12,0,.24,0,.36V138c0,.12,0,.23,0,.34v.12a5,5,0,0,0,.07.54q.06.3.12.57l0,.12a2.68,2.68,0,0,0,.07.27c.06.22.13.44.2.64a2.47,2.47,0,0,0,.1.29l.28.7a1.51,1.51,0,0,0,.09.16,6.6,6.6,0,0,0,.41.78l.16.26c.11.18.22.35.38.57l.07.08a8,8,0,0,0,.51.64l.09.11.11.12.49.5.06.06a7.42,7.42,0,0,0,.65.53l.12.13.7.48.11.06.74.42.09.06c.25.12.51.23.77.33l-.13,0,1.21.33.46.13a10.14,10.14,0,0,0,2.32.27,10.46,10.46,0,0,0,10.11-8,10.38,10.38,0,0,0-7.76-12.44Zm7.07,12.28a9.74,9.74,0,0,1-9.42,7.5,9.16,9.16,0,0,1-1.8-.18l-.77-.21a11.15,11.15,0,0,1-1.7-.6l-.09-.07-.79-.45-.07,0-.66-.46h0l-.11-.1c-.19-.15-.39-.31-.57-.48l-.24.26.16-.35c-.15-.14-.3-.29-.44-.44l-.09-.1-.11-.12c-.16-.19-.32-.4-.47-.61l-.08-.09c-.12-.16-.22-.33-.33-.5l-.17-.28a6.68,6.68,0,0,1-.37-.71.27.27,0,0,1-.06-.12l-.28-.68a2.23,2.23,0,0,1-.08-.24c-.08-.21-.14-.41-.2-.62s0-.14-.05-.21l0-.13c0-.19-.07-.36-.11-.55a3.35,3.35,0,0,1-.06-.47l0-.15,0-.28v-.29c0-.13,0-.26,0-.4a2.09,2.09,0,0,1,0-.25,5.81,5.81,0,0,1,.07-.83V136c0-.3.09-.62.17-1a9.78,9.78,0,0,1,2.77-4.86l.11-.07c.19-.18.39-.35.59-.51s.25-.19.39-.28l.07-.06a1.3,1.3,0,0,0,.23-.15,9.8,9.8,0,0,1,7-1.39l.59.11a9.68,9.68,0,0,1,7,11.55Z" transform="translate(-195.89 -73)"/><path class="cls-2" d="M376.77,144.05a2.13,2.13,0,0,0-.06-.42,2.27,2.27,0,0,1-.07-.57.86.86,0,0,1,0-.22,1.72,1.72,0,0,0-.05-.37l-.16-.54a2.38,2.38,0,0,0-.05-.26,2.34,2.34,0,0,1-.05-.3,1.57,1.57,0,0,0-.13-.4,1.23,1.23,0,0,1-.09-.22c0-.12-.07-.24-.1-.36a3.24,3.24,0,0,0-.22-.64c-.18-.36-.32-.66-.37-.78a.74.74,0,0,0-.14-.38c-.09-.14-.22-.34-.37-.61l-.12-.24a3.59,3.59,0,0,0-.46-.69,2.17,2.17,0,0,1-.25-.37,2.66,2.66,0,0,0-.43-.59,4.44,4.44,0,0,1-.56-.65l-.21-.27a9.3,9.3,0,0,1-.69-.63,1.84,1.84,0,0,0-.47-.44l-.11-.08-.21-.15a1.39,1.39,0,0,0-.21-.2.44.44,0,0,1-.11-.09,2.49,2.49,0,0,0-.51-.35,3.15,3.15,0,0,1-.72-.52l-.13-.08a5.56,5.56,0,0,1-.95-.44l-.29-.18-.37-.13a1.19,1.19,0,0,1-.39-.16l-.08,0a1.54,1.54,0,0,1-.41-.18l-.12,0-.22-.05-.22-.06a6.14,6.14,0,0,1-1-.31s-.19,0-.52,0h0a14.21,14.21,0,0,0-5.55,0l-.35.09a13.74,13.74,0,0,0-2.35.76l-.12,0c-.14.07-.28.15-.41.2a2.46,2.46,0,0,0-.76.38,9.82,9.82,0,0,0-.88.5,1.42,1.42,0,0,0-.3.26,3.81,3.81,0,0,0-.62.39,1.25,1.25,0,0,0-.28.22s-.16.15-.44.37l-.14.12c-.12.1-.24.2-.37.33l-.13.13a5.34,5.34,0,0,1-.42.43l-.13.15-.12.12a.68.68,0,0,0-.12.12c-.08.09-.15.19-.23.3l-.11.17-.26.27-.13.18a3.78,3.78,0,0,0-.25.34l-.09.2a3.1,3.1,0,0,1-.27.4c-.06.07-.11.15-.18.25a.94.94,0,0,1-.1.14l-.06.1a3.86,3.86,0,0,1-.37.78l-.09.13-.07.16a2.73,2.73,0,0,0-.14.33,3.11,3.11,0,0,1-.11.32l0,.09a.69.69,0,0,1-.11.27l-.18.39a2.16,2.16,0,0,0,0,.27,4.12,4.12,0,0,1-.26.84l-.08.32a.8.8,0,0,0,0,.15,4.11,4.11,0,0,1-.16.93,2.79,2.79,0,0,0-.06.33.42.42,0,0,0,0,.16,2.26,2.26,0,0,0,0,.26,1.19,1.19,0,0,1,0,.32l0,.23c0,.19,0,.35,0,.49a.74.74,0,0,0,0,.21v.18a7.28,7.28,0,0,1,0,.83,2.62,2.62,0,0,0,.06.57,3.31,3.31,0,0,1,.07.47v.09a1.23,1.23,0,0,1,0,.13,1.27,1.27,0,0,0,0,.2c0,.07,0,.15,0,.23l0,.14c0,.1.06.18.08.27l0,.13a2.61,2.61,0,0,1,.08.47l.06.23a3.9,3.9,0,0,1,.16.45,3.43,3.43,0,0,1,.12.39,1.79,1.79,0,0,0,.2.54c.25.53.39.89.39.89a2.05,2.05,0,0,0,.1.25l.07.13,0,.09.21.34.14.28a2.78,2.78,0,0,0,.51.77,3.41,3.41,0,0,1,.25.37,3.31,3.31,0,0,0,.3.42,1.63,1.63,0,0,0,.23.29c.18.19.34.39.52.61a5.51,5.51,0,0,0,.58.6l.15.15a.57.57,0,0,1,.11.11l.16.14.41.33.27.22.14.13a5.6,5.6,0,0,0,.49.36l.15.11a3.61,3.61,0,0,1,.64.42c.22.14.46.26.7.39l.12.06a3.64,3.64,0,0,1,.38.2c.27.13.54.24.8.35l.18.06.14.05.15.06.09,0,.6.19.12,0a5.23,5.23,0,0,1,.87.29l.16,0a4.19,4.19,0,0,1,1,.16,3.25,3.25,0,0,0,.45.07c.16,0,.31,0,.47,0h.11a2.11,2.11,0,0,1,.51.09h.39l.28,0a4,4,0,0,1,1,0h.08l.06,0a3.46,3.46,0,0,1,.92-.13,2.56,2.56,0,0,0,.51-.1l.25-.06.45-.13a1.68,1.68,0,0,0,.79-.18,6.35,6.35,0,0,1,.95-.33l.26-.12a5.69,5.69,0,0,1,.77-.32,2.58,2.58,0,0,0,.74-.38l.29-.19a2.42,2.42,0,0,0,.79-.46l.19-.14.31-.2a2.26,2.26,0,0,0,.28-.19,1.35,1.35,0,0,0,.24-.23,6.82,6.82,0,0,1,.71-.57,2,2,0,0,0,.43-.44l.28-.3.07-.06a2.25,2.25,0,0,0,.43-.44l.12-.17a1.34,1.34,0,0,0,.18-.24,2.8,2.8,0,0,1,.22-.25l.17-.16a1.42,1.42,0,0,0,.22-.35,1.07,1.07,0,0,1,.11-.19,2.64,2.64,0,0,1,.31-.46,4.86,4.86,0,0,0,.27-.41,6.72,6.72,0,0,1,.39-.81h0l.15-.28a1.86,1.86,0,0,0,.11-.27c0-.11.08-.24.17-.44a1.53,1.53,0,0,1,.13-.32,2.14,2.14,0,0,0,.22-.63,8.46,8.46,0,0,1,.34-1.19,10.29,10.29,0,0,1,.18-1.07,1.84,1.84,0,0,0,.09-.78,2,2,0,0,1,0-.34c0-.12,0-.24,0-.35a1.37,1.37,0,0,0,0-.34,1.41,1.41,0,0,0,0-.33A6.73,6.73,0,0,1,376.77,144.05Zm-.68,1.29a1.29,1.29,0,0,1,0,.24c0,.12,0,.27-.05.38a2.14,2.14,0,0,0,0,.44,1.48,1.48,0,0,1-.06.55,9.56,9.56,0,0,0-.19,1.11,10.72,10.72,0,0,0-.36,1.25,1.35,1.35,0,0,1-.15.44,1.46,1.46,0,0,0-.16.39,3,3,0,0,0-.17.44c0,.07-.05.14-.07.18s-.13.22-.13.23a7.93,7.93,0,0,0-.42.87,2.73,2.73,0,0,1-.21.3,3.18,3.18,0,0,0-.31.48,1.53,1.53,0,0,0-.18.29.55.55,0,0,1-.1.17l-.14.14a3.41,3.41,0,0,0-.32.37,1.18,1.18,0,0,1-.13.18,2.21,2.21,0,0,0-.17.23,1.2,1.2,0,0,1-.28.27l-.1.09c-.12.12-.24.25-.34.37a2.59,2.59,0,0,1-.31.33,6,6,0,0,0-.86.7.51.51,0,0,1-.12.12l-.2.13a2.31,2.31,0,0,0-.37.24c-.07,0-.13.1-.2.15a2,2,0,0,1-.62.35l-.42.26a1.87,1.87,0,0,1-.55.3,6.31,6.31,0,0,0-.87.35l-.22.11a6.32,6.32,0,0,0-1,.35,1.11,1.11,0,0,1-.52.11l-.54.15-.29.06a1.61,1.61,0,0,1-.38.08,3.76,3.76,0,0,0-1,.14,5,5,0,0,0-1.16,0l-.21.05h-.23a2.38,2.38,0,0,0-.63-.1h-.12l-.41,0a3.12,3.12,0,0,1-.41-.06,4.75,4.75,0,0,0-1-.17,5.3,5.3,0,0,0-.9-.3.45.45,0,0,0-.16,0c-.19-.05-.36-.11-.55-.18a1.36,1.36,0,0,0-.25-.11l-.26-.09-.72-.3a3.5,3.5,0,0,0-.42-.24l-.11,0c-.22-.11-.44-.23-.65-.36a4.93,4.93,0,0,0-.63-.42l0,0-.5-.35a1.43,1.43,0,0,0-.23-.22l-.23-.19-.48-.39-.14-.14-.14-.14a5.5,5.5,0,0,1-.54-.54c-.18-.23-.36-.45-.56-.66a1.93,1.93,0,0,1-.17-.22,4.17,4.17,0,0,1-.26-.37,2.81,2.81,0,0,0-.35-.48,2.45,2.45,0,0,1-.38-.6l-.16-.32c-.09-.15-.17-.28-.21-.33a1.46,1.46,0,0,0-.09-.16,1.67,1.67,0,0,1-.07-.2s-.15-.38-.45-1a1.55,1.55,0,0,1-.13-.37,3.45,3.45,0,0,0-.14-.45c0-.15-.1-.3-.17-.5l0-.08a2.52,2.52,0,0,0-.08-.54l0-.12a1.91,1.91,0,0,0-.09-.26l0-.12a.76.76,0,0,1,0-.16.71.71,0,0,1,0-.14,2.42,2.42,0,0,0,0-.25,3,3,0,0,0-.08-.55,1.58,1.58,0,0,1-.05-.41,6.14,6.14,0,0,0,0-.88v-.17a.75.75,0,0,1,0-.15,3.75,3.75,0,0,1,0-.45l0-.2a2.17,2.17,0,0,0,0-.43,1.93,1.93,0,0,1,0-.24l0-.05,0-.07a1.55,1.55,0,0,1,0-.21,6.68,6.68,0,0,0,.19-1.12l0-.1,0-.12a4.06,4.06,0,0,0,.29-1c0-.07,0-.14,0-.16l.13-.27a1.59,1.59,0,0,0,.2-.5,2.4,2.4,0,0,0,.11-.31,1.57,1.57,0,0,1,.09-.23,1.39,1.39,0,0,0,.06-.13l.07-.09a6.07,6.07,0,0,0,.4-.84.8.8,0,0,0,.13-.19l.14-.18a2.8,2.8,0,0,0,.33-.51,1.44,1.44,0,0,0,.07-.16l.2-.27.11-.16a3.43,3.43,0,0,0,.27-.27l.15-.22c.07-.09.12-.18.18-.26l.09-.07.11-.12.15-.16c.16-.15.3-.3.43-.44l.1-.11.33-.28.13-.12c.32-.25.49-.41.5-.42a.86.86,0,0,1,.18-.13,4.31,4.31,0,0,1,.63-.41,3.23,3.23,0,0,1,.29-.25c.26-.16.53-.31.88-.5a2.25,2.25,0,0,1,.58-.29c.18-.07.35-.15.51-.23l.09,0a13.34,13.34,0,0,1,2.19-.71l.44-.11a13.57,13.57,0,0,1,5.35,0l.65.14c.18.06.42.13.72.2l.18.05.23,0a2.66,2.66,0,0,0,.45.2,1.66,1.66,0,0,0,.55.21l.23.08.24.16a6.51,6.51,0,0,0,1,.48,4.26,4.26,0,0,0,.83.59,1.52,1.52,0,0,1,.37.26l.15.12.1.08h0l.09.09.22.16.13.1a1.48,1.48,0,0,1,.35.33,7,7,0,0,0,.72.66l.15.2a4.47,4.47,0,0,0,.64.75,2.07,2.07,0,0,1,.31.43,2.42,2.42,0,0,0,.33.48,2.44,2.44,0,0,1,.35.55l.14.25a5.38,5.38,0,0,0,.42.69v.09l0,.09s.17.38.42.88a2.17,2.17,0,0,1,.17.49,2.32,2.32,0,0,0,.12.42c0,.09.07.19.11.28a.8.8,0,0,1,.07.2c0,.13,0,.24.06.36s0,.14.06.27l.17.58s0,.12,0,.2a1.38,1.38,0,0,0,0,.25,3.31,3.31,0,0,0,.08.66,2.33,2.33,0,0,1,.05.27,5.62,5.62,0,0,0,0,1.09A1,1,0,0,1,376.09,145.34Z" transform="translate(-195.89 -73)"/><path class="cls-2" d="M357.39,168.27a11.91,11.91,0,0,0-1.47-.22v.1a8.19,8.19,0,0,0-.85,0,10.34,10.34,0,0,0-10.08,8,9.67,9.67,0,0,0-.27,2.88,10.37,10.37,0,1,0,12.68-10.73Zm7.1,12.29a9.77,9.77,0,0,1-9.41,7.5,9.48,9.48,0,0,1-2.18-.26,9.67,9.67,0,0,1-7.49-8.84,8.73,8.73,0,0,1,.25-2.68,9.61,9.61,0,0,1,11.17-7.3l0-.1.38.07A9.7,9.7,0,0,1,364.49,180.56Z" transform="translate(-195.89 -73)"/><path class="cls-2" d="M398.55,142.76l-.28,0-.24,0a7.38,7.38,0,0,0-.78-.12c-.14,0-.27,0-.46,0l-.4,0h-.08l-.74,0h-.22c-.28,0-.55.06-.84.11l-.11,0a8.12,8.12,0,0,0-1,.21,7.56,7.56,0,0,0-.88.29l-.08,0a8,8,0,0,0-.77.34.39.39,0,0,0-.13.06,7.85,7.85,0,0,0-.79.43l-.11.07-.58.4-.68.54-.35.3-.14.14-.16.17-.11.11-.26.27c-.05.05-.09.11-.14.17a.44.44,0,0,1-.1.11c-.12.18-.26.34-.39.51l-.12.18-.32.48-.11.18-.06.12c-.12.22-.24.45-.34.67l-.09.16a11.49,11.49,0,0,0-.64,1.9c-.07.34-.12.68-.17,1a2.88,2.88,0,0,0,0,.56,2.11,2.11,0,0,0,0,.5v.65c0,.13,0,.25,0,.33a2.07,2.07,0,0,0,0,.29c0,.23.05.45.08.68l.06.26c.05.27.11.55.2.88a9.3,9.3,0,0,0,.3.89,10,10,0,0,0,.85,1.7l0,.09a7.81,7.81,0,0,0,.53.75l.27.35.44.5.05,0a6.24,6.24,0,0,0,.59.57,1.49,1.49,0,0,0,.13.13l.1.08c.19.16.37.31.6.48a.28.28,0,0,1,.11.07,6.41,6.41,0,0,0,.7.45l.16.1c.24.14.5.26.78.39l.11.06.86.34.11,0h0a6.33,6.33,0,0,0,.93.26,10.36,10.36,0,0,0,4.66-20.19ZM405.62,155a9.69,9.69,0,0,1-9.38,7.49,9.56,9.56,0,0,1-2.19-.25,8.8,8.8,0,0,1-.93-.26h0l-.09,0-.73-.29-.15-.08a7.18,7.18,0,0,1-.68-.34l-.19-.11c-.21-.12-.42-.26-.66-.43a.24.24,0,0,0-.11-.07l-.53-.43-.06,0-.13-.12a6.25,6.25,0,0,1-.58-.57l-.08-.06c-.13-.14-.25-.29-.37-.43l-.22-.28a8.3,8.3,0,0,1-.5-.71l0,0a10.82,10.82,0,0,1-.83-1.67,7.76,7.76,0,0,1-.29-.89c-.07-.24-.12-.5-.17-.75l-.06-.23c0-.21,0-.41-.07-.66a1.44,1.44,0,0,1,0-.24c0-.1,0-.21,0-.31a2.18,2.18,0,0,1,0-.25v-.41a2.53,2.53,0,0,1,0-.43,3.2,3.2,0,0,1,0-.52c0-.31.09-.64.15-1a11,11,0,0,1,.53-1.59h0l.05-.21c.13-.26.25-.5.36-.7a.56.56,0,0,0,.08-.15l.1-.15c.09-.15.19-.3.29-.45l.05-.08.05-.07c.14-.17.27-.35.38-.5a.69.69,0,0,0,.11-.13l.11-.12c.07-.09.16-.17.24-.26l.1-.1.19-.19.1-.11.32-.27.33-.28.31-.23.52-.37.19-.11a7.12,7.12,0,0,1,.67-.36l.08,0c.25-.13.52-.24.82-.36s.56-.2.88-.29.57-.13.86-.18l.1,0c.27,0,.53-.08.87-.1h.15l.7,0,.48,0,.36,0c.23,0,.47.06.71.11l.28,0,.23,0A9.66,9.66,0,0,1,405.62,155Z" transform="translate(-195.89 -73)"/></g><path class="cls-2" d="M250.23,388.32a7,7,0,0,1,1.43-.38l.21,0-.23-11-.06-.24h-.37l-1.16.14a2.81,2.81,0,0,0-.67.11l-.43.1-.34.07a7,7,0,0,0-.94.23c-.2.08-.42.15-.65.22a9.1,9.1,0,0,0-1.09.39l-.65.29-.42.18-.25.11L250,388.4Zm-4.76-9.62c.23-.1.46-.19.68-.3a8.28,8.28,0,0,1,1-.36c.24-.08.47-.15.67-.23a7.71,7.71,0,0,1,.87-.21,3,3,0,0,0,.37-.08l.47-.11.16,0,.39,0,1.05-.13.21,10.29a8.22,8.22,0,0,0-1.11.29l-4.94-9Z" transform="translate(-195.89 -73)"/><path class="cls-2" d="M292.32,389.93c0-.19-.06-.4-.08-.63a15.33,15.33,0,0,0-.24-1.52l-.69-3.08a1.94,1.94,0,0,0-2.16-1.56c-.32,0-2.79,0-5.17.23-1.15.09-2.44.24-3.55.4l-.45.07a2.14,2.14,0,0,1-.1-.22c-.12-.26-.22-.51-.32-.74-.21-.47-.38-.87-.55-1.17s-.37-.69-.38-.69l-.38-.68L278,380l-.23-.42c-.15-.23-.32-.48-.51-.74l-.29-.43c.59-.67,1.6-1.85,2.58-3.11.67-.84,1.38-1.82,2.12-2.89l.89-1.32a1.36,1.36,0,0,0,.47-.94,2.32,2.32,0,0,0-.6-1.68,7.14,7.14,0,0,0-.68-.76l-.1-.1-1.43-1.41a20.17,20.17,0,0,0-1.61-1.47l-.76-.61a1.89,1.89,0,0,0-2.63,0c-.13.09-.61.44-1.28,1-.87.67-1.89,1.5-2.8,2.29-1.32,1.13-2.47,2.24-3,2.72l-.2-.13a13.09,13.09,0,0,0-1.34-.75l-.49-.26-.68-.35a4,4,0,0,0-.76-.35l-1.93-.78-.2-.07h0l0-.37v-.1c.06-.67.16-2,.21-3.53.09-2.39,0-4.86,0-5.2a1.44,1.44,0,0,0-.22-1.12,2.18,2.18,0,0,0-1.46-.93l-3.1-.56-3.11-.26a2.12,2.12,0,0,0-1.72.58,1.4,1.4,0,0,0-.44,1c-.1.32-.85,2.68-1.39,5-.26,1.1-.52,2.36-.73,3.46,0,.17-.05.32-.08.47h-.24c-.85.11-1.56.2-2.06.25a4.43,4.43,0,0,0-.8.14l-.78.17-.55.13c-.41.08-.92.19-1.49.36l-.21.08c-.39-.66-1.2-2-2.15-3.4-.66-1-1.43-2-2.1-2.93-.52-.68-.89-1.14-1-1.26a1.56,1.56,0,0,0-1.51-.88,2.61,2.61,0,0,0-1,.23l-.89.4a18.93,18.93,0,0,0-1.95,1l-1.87,1.06c-.51.3-.83.54-.84.54a2.37,2.37,0,0,0-1,1.49,1.33,1.33,0,0,0,.2,1c.05.14.25.71.52,1.51.45,1.25.87,2.34,1.3,3.34.57,1.38,1.22,2.73,1.68,3.67l-.36.31c-.26.22-.51.42-.72.62l-.64.65-.55.56-.55.57c-.23.24-.49.58-.8,1l-.52.66a1.46,1.46,0,0,0-.16.19L229,377c-.63-.27-1.9-.8-3.32-1.31-2.24-.81-4.61-1.48-4.93-1.57a1.4,1.4,0,0,0-.7-.18,2.2,2.2,0,0,0-1.8,1.14s-.72,1.4-1.45,2.79a12.81,12.81,0,0,0-.62,1.4c-.09.21-.17.42-.25.6l-.37.92a2.32,2.32,0,0,0-.1,1.55,1.47,1.47,0,0,0,.89,1c.26.19,2.29,1.63,4.35,2.87,1.35.82,2.7,1.55,3.49,2h0l-.06.23c-.31,1.69-.52,2.81-.52,2.83s-.09,1.14-.23,2.87v.24c-.75.17-2.29.53-3.88,1-2.3.65-4.63,1.51-4.94,1.63a1.5,1.5,0,0,0-1.12.71,2.36,2.36,0,0,0-.3,1.51s0,.4.12,1c0,.19,0,.41.08.64.05.46.12,1,.23,1.51l.69,3.08a2.06,2.06,0,0,0,1.79,1.61h0a1.36,1.36,0,0,0,.36-.05c.34,0,2.81,0,5.18-.23,1.12-.09,2.42-.24,3.54-.39l.14,0,.33,0,.09.23.35.78c.19.45.36.83.52,1.13l.38.69.39.68c.07.14.16.29.26.46l.19.34c.14.23.31.47.49.73l.31.44c-1,1.11-1.85,2.16-2.58,3.11s-1.53,2-2.13,2.89L223,419a1.42,1.42,0,0,0-.47.94,2.34,2.34,0,0,0,.6,1.69s.26.32.68.76c.24.23.52.5.81.8l.72.71a19.72,19.72,0,0,0,1.62,1.46l.75.62a1.9,1.9,0,0,0,2.63,0c.13-.09.61-.44,1.29-1s1.64-1.28,2.79-2.28c.9-.77,1.92-1.71,3-2.72l.2.13a13.09,13.09,0,0,0,1.34.75l.5.26.68.35a4.55,4.55,0,0,0,.75.35l1.85.74.28.1h0c0,.15,0,.31,0,.48-.09,1.06-.17,2.35-.21,3.53-.08,2.39,0,4.86,0,5.2a1.46,1.46,0,0,0,.22,1.11,2.11,2.11,0,0,0,1.46.93l3.1.56,3.12.26h.22a2.09,2.09,0,0,0,1.5-.59,1.37,1.37,0,0,0,.43-.95c.11-.33.86-2.68,1.39-5,.35-1.46.6-2.8.73-3.48,0-.16.06-.31.08-.45h0l.23,0,.56-.07,1.5-.18a5.58,5.58,0,0,0,.81-.13s.27-.07.77-.17l.54-.12c.41-.09.93-.2,1.49-.38l.22-.07c.39.66,1.22,2,2.15,3.39s1.68,2.38,2.11,2.93.89,1.15,1,1.27a1.53,1.53,0,0,0,1.5.87,2.57,2.57,0,0,0,1-.23l.89-.39a19.33,19.33,0,0,0,1.95-1l1.87-1.06c.51-.31.83-.54.84-.54a2.36,2.36,0,0,0,1-1.49,1.4,1.4,0,0,0-.21-1l-.52-1.51c-.45-1.28-.88-2.37-1.29-3.33-.62-1.48-1.29-2.88-1.69-3.68l.18-.15.31-.26.6-.52.31-.32.32-.33.56-.56s.19-.21.54-.56.51-.6.83-1l.5-.62.15-.19.44.19c1,.44,2.25.92,3.31,1.3,2.24.82,4.61,1.48,4.93,1.57a1.42,1.42,0,0,0,.71.19,2.21,2.21,0,0,0,1.79-1.15l1.45-2.78a12.18,12.18,0,0,0,.63-1.42l.25-.59.36-.91a2.33,2.33,0,0,0,.1-1.55,1.49,1.49,0,0,0-.89-1c-.27-.2-2.29-1.63-4.35-2.86-1.34-.82-2.7-1.56-3.49-2a2.17,2.17,0,0,0,.07-.24c.31-1.69.52-2.82.52-2.85s.09-1.13.23-2.86a1.92,1.92,0,0,0,0-.24c1-.23,2.45-.57,3.88-1,2.31-.65,4.63-1.51,4.95-1.63a1.52,1.52,0,0,0,1.12-.71,2.39,2.39,0,0,0,.29-1.52S292.38,390.53,292.32,389.93Zm-.6,2.24a1,1,0,0,1-.77.48l-.07,0s-2.49.93-4.94,1.63c-1.52.44-3,.8-4.05,1l-.2.05v.41a1.33,1.33,0,0,1,0,.2c-.13,1.7-.22,2.83-.22,2.83s-.22,1.14-.52,2.8c0,.07,0,.14-.06.22a1.33,1.33,0,0,0-.05.19l0,.19.17.1c.74.38,2.2,1.17,3.65,2.05,2.18,1.3,4.32,2.84,4.34,2.86l.07,0a1,1,0,0,1,.61.66,1.9,1.9,0,0,1-.09,1.21l-.36.91-.25.59a13.44,13.44,0,0,1-.61,1.37l-1.45,2.77c-.44.74-1.31,1.11-1.82.77l-.07,0s-2.55-.69-4.93-1.56c-1.06-.38-2.26-.85-3.29-1.29l-.6-.27-.18-.09-.12.16-.27.35-.5.62c-.31.39-.58.73-.8,1s-.54.56-.54.56l-.56.56-.31.33-.31.31c-.17.16-.37.33-.57.5l-.31.26-.33.28-.15.13.09.17c.37.75,1.1,2.25,1.76,3.82.41,1,.83,2,1.28,3.31l.53,1.54,0,.07a.84.84,0,0,1,.13.68,1.86,1.86,0,0,1-.82,1.16s-.31.23-.8.52l-1.87,1.06a20.39,20.39,0,0,1-1.89,1l-.9.4c-.79.35-1.68.15-1.89-.41l0-.07s-.41-.49-1-1.28c-.42-.55-1.25-1.67-2.09-2.91-1-1.49-1.9-3-2.24-3.54l-.1-.16-.18.05-.42.13c-.54.17-1,.28-1.45.37l-.54.12-.79.17a3,3,0,0,1-.73.12l-1.51.18-.55.07-.21,0h-.22l-.19,0,0,.19c0,.2-.07.4-.12.66-.12.66-.37,2-.71,3.44-.57,2.47-1.38,5-1.39,5l0,0v0a.93.93,0,0,1-.3.64,1.63,1.63,0,0,1-1.32.44l-3.09-.27-3.08-.55a1.67,1.67,0,0,1-1.13-.71.91.91,0,0,1-.14-.75V432s-.13-2.66,0-5.19c0-1.18.11-2.46.21-3.51,0-.24,0-.46,0-.66l0-.19-.18-.07-.22-.08-.25-.09-1.86-.75a4,4,0,0,1-.68-.31l-.7-.36-.5-.27c-.37-.19-.83-.42-1.3-.72l-.37-.24-.17-.1-.14.14c-1.08,1.05-2.14,2-3.07,2.83-1.15,1-2.23,1.85-2.78,2.27-.77.6-1.3,1-1.3,1l-.06.06c-.35.48-1.26.44-1.93-.1l-.77-.63a18.47,18.47,0,0,1-1.57-1.42l-.71-.71-.82-.8c-.4-.41-.63-.7-.64-.71A1.87,1.87,0,0,1,223,420a.88.88,0,0,1,.31-.62l.06-.06.9-1.35c.6-.85,1.31-1.85,2.11-2.86s1.67-2.07,2.69-3.23l.13-.15-.53-.77c-.18-.25-.34-.48-.47-.69L228,410l-.26-.47-.38-.68s-.15-.26-.38-.68-.32-.65-.51-1.09c-.1-.25-.22-.51-.34-.78,0-.1-.08-.2-.13-.3l-.11-.29-.2,0-.52.08-.13,0c-1.12.16-2.4.3-3.52.4-2.51.21-5.14.22-5.16.22h-.08a.69.69,0,0,1-.25,0h0a1.54,1.54,0,0,1-1.3-1.23l-.69-3.07c-.11-.49-.17-1-.23-1.46,0-.24-.05-.46-.08-.65-.07-.58-.11-1-.11-1a1.84,1.84,0,0,1,.22-1.19,1,1,0,0,1,.76-.49h.08s2.49-.94,4.94-1.63c1.73-.51,3.41-.9,4-1l.2,0v-.61c.13-1.7.23-2.83.23-2.83s.2-1.14.51-2.8c0-.06,0-.12.05-.19a1.55,1.55,0,0,0,.07-.23l0-.19-.17-.08c-.74-.39-2.2-1.17-3.64-2.05-2.18-1.31-4.33-2.85-4.35-2.86l-.06,0a1,1,0,0,1-.62-.66,1.91,1.91,0,0,1,.1-1.21s.14-.36.36-.9l.25-.62a14,14,0,0,1,.6-1.35c.73-1.38,1.45-2.77,1.45-2.77a1.68,1.68,0,0,1,1.36-.89.8.8,0,0,1,.46.13l.07,0s2.56.7,4.93,1.56c1.41.5,2.67,1,3.28,1.29l.62.28.18.08.17-.23.21-.27c.19-.23.37-.45.53-.66.3-.37.56-.7.77-.92l.55-.57.55-.56.63-.64c.2-.19.44-.38.69-.6l.66-.56-.08-.18c-.47-.93-1.15-2.36-1.76-3.82-.43-1-.85-2.07-1.29-3.31l-.52-1.54,0-.07a.86.86,0,0,1-.14-.67,1.86,1.86,0,0,1,.82-1.16s.32-.23.8-.52l1.87-1.06c.58-.33,1.32-.73,1.9-1l.9-.39c.78-.35,1.68-.15,1.88.4l0,.07s.41.5,1,1.28,1.43,1.95,2.09,2.91c1,1.53,1.91,3,2.23,3.55l.1.17.6-.2c.54-.17,1-.27,1.44-.36l.56-.12.79-.18a3.85,3.85,0,0,1,.73-.12l2-.25.62-.05.06-.36c0-.15.05-.31.09-.48.2-1.09.46-2.34.71-3.44.58-2.47,1.39-5,1.4-5v-.08a.92.92,0,0,1,.29-.65,1.59,1.59,0,0,1,1.32-.43l3.1.26,3.07.56a1.66,1.66,0,0,1,1.13.7,1,1,0,0,1,.15.76v.08s.13,2.65,0,5.19c-.05,1.52-.15,2.85-.2,3.51v.1c0,.2,0,.39-.05.55l0,.2.18.06.22.08.18.06,1.93.78a3.85,3.85,0,0,1,.69.32l.69.36.51.27a13.8,13.8,0,0,1,1.29.71l.53.36.15-.15c.35-.34,1.61-1.57,3.08-2.83.9-.78,1.91-1.61,2.77-2.28s1.3-1,1.3-1l.06-.06c.35-.48,1.27-.43,1.93.11l.77.62a17.44,17.44,0,0,1,1.57,1.43l1.43,1.4.1.1c.4.41.63.71.64.72a1.84,1.84,0,0,1,.49,1.33.88.88,0,0,1-.31.62l-1,1.4c-.73,1.06-1.44,2-2.1,2.87-1.05,1.34-2.14,2.6-2.7,3.23l-.13.14.52.75.49.72.22.4.22.39.38.68.39.69c.15.28.32.67.52,1.13l.32.74c.06.13.11.26.17.4l.07.18.3,0,.56-.09c1.09-.15,2.36-.3,3.5-.39,2.53-.22,5.15-.23,5.17-.23h.08c.58-.19,1.33.39,1.56,1.19l.68,3.07a11.72,11.72,0,0,1,.23,1.47c0,.23.05.45.08.64.07.59.12,1,.12,1A1.91,1.91,0,0,1,291.72,392.17Z" transform="translate(-195.89 -73)"/><path class="cls-2" d="M246.23,392.11a7.5,7.5,0,0,1,.73-1.28l.13-.18L239,382.87l-.34.42c-.11.13-.22.28-.36.43a19.57,19.57,0,0,0-2.1,3.37c-.17.38-.32.75-.47,1.13-.09.22-.18.45-.28.67l-.11.26,10.83,3.16ZM236,388.83c.06-.14.12-.28.17-.43.15-.36.3-.73.46-1.09a18.91,18.91,0,0,1,2-3.26c.14-.16.26-.31.37-.45l7.41,7.11a10.48,10.48,0,0,0-.57,1Z" transform="translate(-195.89 -73)"/><path class="cls-2" d="M257,389.22l.18.12,7.79-8.11-.21-.17-.39-.31-.54-.43a7.13,7.13,0,0,0-1-.66c-.2-.13-.39-.25-.57-.38a6.71,6.71,0,0,0-.84-.46l-.31-.16-.39-.21a2.32,2.32,0,0,0-.6-.27c-.28-.11-.66-.26-1.09-.45l-.12,0-.13.23.09-.24-.25-.1-3.15,10.81.2.09A8.06,8.06,0,0,1,257,389.22Zm2-11c.39.17.73.3,1,.4l.36.14.14.08.42.23a2.81,2.81,0,0,0,.35.18,6,6,0,0,1,.76.42c.18.13.38.26.59.39a8.51,8.51,0,0,1,.9.62c.17.15.36.3.56.45l.16.13-7.12,7.41a8,8,0,0,0-1-.57Z" transform="translate(-195.89 -73)"/><path class="cls-2" d="M255.34,401.75a7,7,0,0,1-1.42.37l-.22,0,.24,11,.06.28.37-.05,1.12-.14a3.17,3.17,0,0,0,.72-.11l.43-.1a2.84,2.84,0,0,1,.39-.09,6.33,6.33,0,0,0,.89-.22l.63-.21a9.32,9.32,0,0,0,1.11-.39,6.62,6.62,0,0,1,.71-.32l.58-.25-5.41-9.88Zm4.84,9.58c-.26.11-.52.22-.74.34a9.78,9.78,0,0,1-1,.36c-.24.08-.47.15-.66.23s-.57.14-.82.19l-.42.09-.64.15-.44.06-1,.12-.22-10.29a7.38,7.38,0,0,0,1.1-.29l4.94,9Z" transform="translate(-195.89 -73)"/><path class="cls-2" d="M259.34,398a6.82,6.82,0,0,1-.74,1.27l-.13.18,8.13,7.79.29-.37c.12-.16.26-.33.42-.52a19.87,19.87,0,0,0,2.1-3.36c.18-.4.34-.8.5-1.19.08-.2.15-.39.23-.58l.11-.26-10.82-3.15Zm10.24,3.28-.14.33c-.15.39-.3.78-.48,1.16a18.44,18.44,0,0,1-2,3.25c-.14.17-.27.33-.38.48l-7.42-7.11a7.18,7.18,0,0,0,.57-1Z" transform="translate(-195.89 -73)"/><path class="cls-2" d="M257.35,395.63a4.6,4.6,0,0,0-4-5.16,4.6,4.6,0,1,0-1.21,9.12,4.26,4.26,0,0,0,.61,0A4.61,4.61,0,0,0,257.35,395.63Zm-5.09,3.46a4.1,4.1,0,0,1,.53-8.16,4.9,4.9,0,0,1,.54,0,4.11,4.11,0,0,1,3.53,4.59A4.11,4.11,0,0,1,252.26,399.09Z" transform="translate(-195.89 -73)"/><path class="cls-2" d="M248.59,400.86l-.18-.13-7.79,8.13.49.39c.21.16.42.32.62.5a9.68,9.68,0,0,0,1,.66l.58.38a5.54,5.54,0,0,0,.8.44l.35.18.38.21a3.65,3.65,0,0,0,.67.3l1,.43.12,0,.27.13,3.15-10.83-.2-.09A8,8,0,0,1,248.59,400.86Zm-2,11c-.36-.15-.67-.28-.92-.37l-.41-.17-.58-.31-.38-.2a6.12,6.12,0,0,1-.74-.4q-.27-.19-.6-.39a10,10,0,0,1-.88-.62c-.2-.18-.42-.35-.64-.52l-.06-.05,7.11-7.41a9.26,9.26,0,0,0,1,.56Z" transform="translate(-195.89 -73)"/><path class="cls-2" d="M271.08,393c-.05-.41-.1-.84-.18-1.27a19.94,19.94,0,0,0-1.15-3.8l-.22-.49-.23-.51-9.86,5.41.07.2a7,7,0,0,1,.38,1.43l0,.21,11.28-.23,0-.28C271.13,393.4,271.1,393.18,271.08,393Zm-10.73.67a9.32,9.32,0,0,0-.29-1.1l9-4.94h0c.07.16.14.33.23.51a19,19,0,0,1,1.11,3.67c.07.42.12.83.17,1.24,0,.14,0,.27.05.4Z" transform="translate(-195.89 -73)"/><path class="cls-2" d="M246.08,397.61a7.28,7.28,0,0,1-.38-1.43l0-.21-11.28.23,0,.28c0,.21,0,.42.08.64.05.42.09.84.17,1.27a18.28,18.28,0,0,0,1.15,3.78l.27.6.18.45,9.88-5.41Zm-9.55,4.91-.24-.56a17.46,17.46,0,0,1-1.12-3.66c-.07-.42-.12-.83-.17-1.24,0-.12,0-.25,0-.37l10.29-.21a7.07,7.07,0,0,0,.29,1.1Z" transform="translate(-195.89 -73)"/><path class="cls-2" d="M328.76,267.47s0-.48,0-1.25a6.25,6.25,0,0,1,0-.86,8.68,8.68,0,0,0-.06-1.82c-.09-1-.15-1.92-.2-2.64a7.86,7.86,0,0,0-.13-1.32c-.07-.36-.4-2.06-.67-3.78-.48-1.6-.9-3.24-1-3.64a6.48,6.48,0,0,0-.45-1.27c-.26-.68-.62-1.57-.93-2.46a8.51,8.51,0,0,0-.74-1.69,8.52,8.52,0,0,1-.4-.8c-.31-.62-.54-1.05-.54-1.06s-.21-.45-.54-1.15l-.58-.89-.84-1.32a13.86,13.86,0,0,0-1.5-2.24c-.45-.59-.77-1-.77-1h0c-.58-.73-4.14-5.07-5.25-5.73l-.91-.79c-.21-.16-.42-.36-.65-.57a7.57,7.57,0,0,0-1.42-1.15c-1.57-1.07-3.14-2.24-3.2-2.28s-1.74-.92-3.36-1.88a8.17,8.17,0,0,0-1.64-.79,6.43,6.43,0,0,1-.84-.36l-1-.43c-.87-.73-7.5-2.39-7.56-2.39h0c-.16,0-.55-.11-1-.23a13.72,13.72,0,0,0-2.69-.41l-1.25-.16-1.44-.18H286l-1.23,0h-.13l-.65,0a9.78,9.78,0,0,0-1.9.05c-.95.09-1.89.15-2.61.2a5.35,5.35,0,0,0-1.37.14c-.41.08-2.07.41-3.76.66-1.64.49-3.31.92-3.67,1a5.69,5.69,0,0,0-1.27.44c-.67.27-1.56.62-2.44.93a9.64,9.64,0,0,0-1.77.8c-.24.13-.47.25-.69.35l-1.08.53s-.44.2-1.14.55L260,228a15,15,0,0,0-2.26,1.51l-.93.75h0a45.33,45.33,0,0,0-5.8,5.31h0l-.74.85c-.17.22-.38.45-.6.69a8.7,8.7,0,0,0-1.11,1.38c-1.09,1.58-2.24,3.16-2.27,3.21s-.92,1.72-1.88,3.34a8,8,0,0,0-.82,1.71c-.11.27-.21.53-.32.76l-.5,1.11,0,0c-.93,1.32-2.35,7.29-2.35,7.36l0,.12c0,.18-.13.57-.24,1.08a14.59,14.59,0,0,0-.42,2.72c-.12.93-.23,1.87-.33,2.62v1.22s0,.49,0,1.23c0,.25,0,.55,0,.86a8.5,8.5,0,0,0,0,1.81c.09.87.15,1.75.19,2.44a7.85,7.85,0,0,0,.17,1.55c.09.44.4,2.1.65,3.78.48,1.54.89,3.14,1,3.58a7.1,7.1,0,0,0,.54,1.57c.25.64.56,1.42.84,2.19a8.85,8.85,0,0,0,.76,1.73c.14.26.27.5.37.74.32.67.54,1.09.54,1.09l.54,1.13,1.42,2.23A14,14,0,0,0,248,292c.43.55.72.94.72,1h0c.57.72,4.13,5,5.26,5.74l.92.78c.19.16.39.35.6.55a8.23,8.23,0,0,0,1.46,1.17c1.59,1.08,3.15,2.22,3.21,2.27s1.72.92,3.36,1.88a8.86,8.86,0,0,0,1.67.82c.29.11.56.22.81.34l1,.46c.88.69,7.51,2.36,7.56,2.36h0l1.08.23a14,14,0,0,0,2.68.42l2.68.33h1.19l1.26,0h.13l.65,0,.88,0a6.12,6.12,0,0,0,1-.07c.89-.09,1.78-.15,2.48-.19a7.58,7.58,0,0,0,1.5-.17c.42-.07,2.07-.38,3.77-.64,1.6-.49,3.26-.91,3.64-1h0a6.34,6.34,0,0,0,1.57-.56c.63-.25,1.39-.56,2.12-.83a8.25,8.25,0,0,0,1.72-.75c.27-.14.51-.28.78-.39.62-.31,1.05-.51,1.08-.52s.43-.23,1.13-.55l2.21-1.42a14.47,14.47,0,0,0,2.24-1.51l1-.74h0a40.93,40.93,0,0,0,5.77-5.31l.74-.87a5.93,5.93,0,0,1,.55-.61,8.53,8.53,0,0,0,1.17-1.44c1.07-1.6,2.23-3.13,2.28-3.2s.92-1.74,1.88-3.37a8.25,8.25,0,0,0,.85-1.75c.1-.26.19-.5.29-.72.3-.65.5-1.11.5-1.11l0,0c.93-1.33,2.36-7.34,2.36-7.41v0L328,274a17.67,17.67,0,0,0,.41-2.67c.12-1,.23-1.93.32-2.69Zm-.75-2.15a7,7,0,0,0,0,.91c0,.73,0,1.2,0,1.22v1.17c-.08.71-.2,1.68-.32,2.64a15.9,15.9,0,0,1-.39,2.56c-.15.69-.27,1.17-.27,1.17l-.11.44h.05a65.77,65.77,0,0,1-2,6.51l-.06,0-.15.34-.49,1.09c-.11.23-.21.5-.32.78a7.53,7.53,0,0,1-.78,1.59c-1,1.66-1.88,3.38-1.87,3.38h0s-1.2,1.58-2.28,3.2a8.37,8.37,0,0,1-1.08,1.32,6.55,6.55,0,0,0-.59.65l-1.05,1.23.05,0a63.71,63.71,0,0,1-5,4.58l0,0-.33.26s-.37.3-1,.75a14,14,0,0,1-2.15,1.45l-2.16,1.4c-.68.29-1.12.53-1.12.53s-.46.21-1,.51a9.28,9.28,0,0,0-.83.42,7.55,7.55,0,0,1-1.58.69c-.78.29-1.55.6-2.17.85l-1,.41-.36.09s-1.93.49-3.71,1c-1.93.3-3.83.66-3.83.66l-.33.06h0l-1,.07c-.71,0-1.61.1-2.53.2a9.15,9.15,0,0,1-1.75,0l-.7,0h-.14c-.72,0-1.21,0-1.23,0h-1.16c-.69-.1-1.67-.22-2.65-.34a13.15,13.15,0,0,1-2.55-.39l-1.19-.26-.42-.09v0c-1.29-.3-5.46-1.54-6.5-2l0-.05-1.42-.64c-.25-.13-.54-.24-.85-.37a7.86,7.86,0,0,1-1.55-.75c-1.65-1-3.34-1.88-3.35-1.88h0s-1.6-1.17-3.21-2.26a7.47,7.47,0,0,1-1.33-1.08c-.23-.22-.45-.43-.65-.59l-1.18-1,0,0c-.85-.74-3.79-4-4.61-5.06h0l-.26-.34s-.3-.4-.76-1a15.12,15.12,0,0,1-1.44-2.15l-1.4-2.2-.52-1.1s-.22-.42-.53-1.06a8.19,8.19,0,0,0-.39-.79,7.44,7.44,0,0,1-.71-1.59c-.29-.81-.6-1.6-.86-2.24-.15-.38-.3-.76-.39-1h0l-.08-.34s-.49-1.92-1-3.69a26.55,26.55,0,0,0-.69-4c0-.17-.07-.7-.1-1.22,0-.7-.1-1.59-.2-2.5a7.82,7.82,0,0,1,0-1.67c0-.34,0-.67,0-.92,0-.72,0-1.21,0-1.21v-1.16c.1-.71.22-1.64.34-2.64a13.78,13.78,0,0,1,.39-2.56c.16-.71.28-1.18.28-1.18l.1-.4h0a64.91,64.91,0,0,1,2-6.52l0,0,.65-1.45a8.14,8.14,0,0,0,.34-.82,8.11,8.11,0,0,1,.76-1.58c1-1.64,1.88-3.34,1.88-3.34h0s1.16-1.6,2.26-3.2a7.49,7.49,0,0,1,1-1.26,9,9,0,0,0,.64-.74c.48-.54.8-.92.8-.92l.25-.29,0,0c.79-.87,4.09-3.83,5.07-4.59l0,0,.31-.24s.38-.3.94-.77a14.54,14.54,0,0,1,2.16-1.43c.81-.52,1.63-1,2.2-1.41l1.09-.51,1.08-.53.73-.38a9.15,9.15,0,0,1,1.64-.74c.91-.32,1.81-.67,2.48-.94l.83-.32.28-.08s1.91-.48,3.71-1c1.91-.28,3.83-.67,3.84-.68l.21,0,1-.07c.72,0,1.68-.1,2.66-.2a9.23,9.23,0,0,1,1.76,0l.69,0h.13l1.23,0h1.16l1.37.17,1.28.17a12.21,12.21,0,0,1,2.56.39c.7.16,1.18.25,1.18.25l.37.08v0a68.49,68.49,0,0,1,6.55,2l0,.07.35.15,1.09.47c.26.13.56.25.89.38a8.24,8.24,0,0,1,1.51.71c1.63,1,3.34,1.88,3.35,1.88s1.6,1.2,3.2,2.28a7.31,7.31,0,0,1,1.3,1.06c.25.23.48.45.69.61l.91.79.28.25,0-.05a64.12,64.12,0,0,1,4.61,5.08l-.05.05.27.31s.31.35.75.93a13.08,13.08,0,0,1,1.43,2.14l.86,1.34.55.84.52,1.13s.24.44.54,1a6.45,6.45,0,0,0,.41.84,9,9,0,0,1,.69,1.56c.32.92.68,1.83.95,2.51.13.32.26.66.33.86l.06.23s.48,1.91,1,3.7c.3,1.9.67,3.81.68,3.83l0,.21c0,.21,0,.58.06.94.05.73.11,1.7.21,2.7A7.84,7.84,0,0,1,328,265.32Z" transform="translate(-195.89 -73)"/><path class="cls-2" d="M270.69,213.07a7.2,7.2,0,0,0,1.6-.18,7.19,7.19,0,0,0,5.45-8.61,7.27,7.27,0,0,0-7-5.62,7.45,7.45,0,0,0-1.56.17,7.24,7.24,0,0,0-5.46,8.61A7.17,7.17,0,0,0,270.69,213.07Zm-1.38-13.46a6.57,6.57,0,0,1,1.39-.15,6.47,6.47,0,0,1,6.26,5,6.38,6.38,0,0,1-4.85,7.65,6.18,6.18,0,0,1-1.42.16,6.41,6.41,0,0,1-1.38-12.66Z" transform="translate(-195.89 -73)"/><path class="cls-2" d="M372,258.26a1.3,1.3,0,0,0-1.08-1.26s-1.73-.12-3.48-.22l-1.56-.09c-.06-.58-.11-1.07-.14-1.41s-.09-.66-.09-.66-.13-.78-.35-2l.6-.2.9-.29c1.64-.58,3.3-1.15,3.32-1.15a1.34,1.34,0,0,0,.69-1.52l-.57-3.21c-.43-1.54-.83-3.1-.83-3.12a1.41,1.41,0,0,0-1.2-1.06l-3.59.4-1.56.19-.72-2.58-.49-1.35,1.12-.6.26-.14,3-1.7a1.29,1.29,0,0,0,.45-1.61l-1.14-3a27.94,27.94,0,0,0-1.33-3,1.38,1.38,0,0,0-1.46-.8s-1.69.47-3.41,1l-1.47.46-.92-1.83-.93-1.86c.39-.3.81-.63,1.22-1,1.35-1.07,2.69-2.18,2.69-2.18a1.3,1.3,0,0,0,.14-1.68l-3.45-5.49a1.37,1.37,0,0,0-1.59-.54s-1.59.77-3.18,1.57l-.22.11c-.4.2-.8.4-1.17.6-.77-1-1.28-1.63-1.28-1.63L348,213.75l1.08-1.19,2.28-2.65a1.29,1.29,0,0,0-.13-1.68l-4.43-4.75a1.35,1.35,0,0,0-1.65-.3l-2.8,2.06-1.13.84-.14.1-1.54-1.35L338,203.48l.7-1.14,1.93-3.23a1.33,1.33,0,0,0-.42-1.62l-.74-.64a19.71,19.71,0,0,0-1.8-1.41c-1.32-.91-2.62-1.85-2.63-1.86a1.37,1.37,0,0,0-1.67,0l-2.42,2.54-.72.77-.35.37-1.71-1.17-1.76-1c.19-.45.4-1,.58-1.46.64-1.63,1.25-3.25,1.25-3.25a1.29,1.29,0,0,0-.71-1.53l-2.81-1.58a17,17,0,0,0-2-1l-.94-.42a1.36,1.36,0,0,0-1.65.33s-.95,1.46-1.95,2.9c-.28.46-.58.91-.85,1.32l-1.88-.8-1.9-.83.05-.21c.08-.41.17-.86.28-1.34l.64-3.4a1.27,1.27,0,0,0-1-1.37l-6.17-2a1.38,1.38,0,0,0-1.59.62s-.71,1.59-1.41,3.22c-.11.27-.23.54-.34.8l-.29.66c-1.22-.29-2-.45-2-.45l-2-.42c0-.5,0-1.07.05-1.62l.06-3.5a1.42,1.42,0,0,0-1.21-1.23l-6.42-.75a1.29,1.29,0,0,0-1.45.82l-.83,3.38c-.12.55-.24,1.07-.36,1.54l-2.07-.07s-.81,0-2,0l0-.18c-.06-.44-.13-.92-.21-1.39l-.55-3.43a1.29,1.29,0,0,0-1.33-1h0s-.41,0-1,0-1.42,0-2.26.1l-3.24.24a1.34,1.34,0,0,0-1.28,1.09s-.09,1.74-.23,3.48c0,.53,0,1.07-.08,1.55l-1,.1-.45.05-.61.08-2,.37c-.11-.32-.22-.67-.34-1l-.17-.5c-.57-1.64-1.13-3.3-1.14-3.34a1.33,1.33,0,0,0-1.5-.66s-1.59.27-3.21.57l-3.13.84a1.31,1.31,0,0,0-1,1.28l.36,3.5c.08.54.14,1.08.2,1.56l-2,.54-1.13.38-.81.29c-.24-.43-.49-.91-.75-1.39-.85-1.51-1.68-3-1.69-3.05a1.35,1.35,0,0,0-1.62-.42s-1.5.59-3,1.15a27.12,27.12,0,0,0-3,1.32,1.37,1.37,0,0,0-.8,1.48s.47,1.69,1,3.35c.14.53.3,1,.45,1.52l-1.84.91-1.83,1c-.3-.39-.64-.82-1-1.24L241,189.76a1.34,1.34,0,0,0-1.66-.12l-5.52,3.47a1.35,1.35,0,0,0-.52,1.59s.78,1.56,1.55,3.15l.46.9.27.52-1.64,1.25-1.64,1.26-.42-.38c-.25-.21-.51-.44-.77-.68l-2.65-2.31a1.39,1.39,0,0,0-1.69.16L222,203a1.31,1.31,0,0,0-.28,1.65l2.05,2.78.19.25.76,1-1.37,1.56L222,211.79c-.42-.25-.88-.53-1.33-.82l-3-1.81a1.39,1.39,0,0,0-1.6.41s-.28.3-.68.77a21.89,21.89,0,0,0-1.37,1.79c-.93,1.33-1.86,2.63-1.86,2.63a1.31,1.31,0,0,0,0,1.68s1.27,1.19,2.52,2.4l1.15,1.09-1.19,1.69-1,1.76-.44-.17-1-.42-3.24-1.22a1.32,1.32,0,0,0-1.54.69l-1.56,2.81a18.58,18.58,0,0,0-1,2l-.41.92a1.34,1.34,0,0,0,.33,1.65l4.22,2.82c-.49,1.12-.81,1.87-.81,1.87l-.82,1.88-.52-.1-1-.2-3.42-.66h-.16a1.33,1.33,0,0,0-1.2,1l-2,6.17a1.34,1.34,0,0,0,.6,1.59l3.22,1.43.36.15,1.11.47c-.27,1.21-.44,2-.44,2s-.19.84-.42,2l-5.13-.09a1.35,1.35,0,0,0-1.21,1.19l-.78,6.42a1.32,1.32,0,0,0,.85,1.47s1.67.4,3.37.83l1.53.34c0,1.24-.06,2.08-.06,2.08s0,.79,0,2l-1.1.16-3.92.62a1.36,1.36,0,0,0-1,1.35,24.8,24.8,0,0,0,.09,3.29c.13,1.59.25,3.19.25,3.19a1.3,1.3,0,0,0,1.07,1.29l3.49.24.91,0,.66,0,0,.44c0,.39.06.72.09,1s.1.6.1.6.13.81.35,2l-.82.27-4,1.38a1.31,1.31,0,0,0-.71,1.5s.29,1.58.58,3.22l.84,3.12a1.32,1.32,0,0,0,1.19,1l3.58-.36.42,0,1.16-.14c.32,1.18.54,2,.54,2s.06.2.17.63c.07.18.16.41.25.67l.24.66-1.38.73L202,295a1.33,1.33,0,0,0-.41,1.62l1.15,3a25.45,25.45,0,0,0,1.32,3,1.37,1.37,0,0,0,1.47.81s1.68-.5,3.37-1l1.52-.47c.54,1.11.9,1.82.9,1.82s.36.75.93,1.85l-3.91,3.18a1.27,1.27,0,0,0-.15,1.65l3.46,5.52a1.38,1.38,0,0,0,1.6.53s1.58-.79,3.15-1.54l1.23-.63.19-.09,1.26,1.64s.5.62,1.26,1.6l-.62.71-.45.51c-1.15,1.31-2.3,2.64-2.31,2.64a1.34,1.34,0,0,0,.15,1.7l4.43,4.72a1.32,1.32,0,0,0,1.63.29l2.82-2,.76-.58.5-.37c.93.83,1.55,1.36,1.55,1.36l1.54,1.36c-.25.42-.54.88-.83,1.34-.89,1.51-1.78,3-1.79,3a1.36,1.36,0,0,0,.42,1.63l.75.64a19.56,19.56,0,0,0,1.78,1.38l2.65,1.89a1.35,1.35,0,0,0,1.66,0s1.21-1.25,2.41-2.51l.55-.59.53-.57,1.69,1.2s.7.4,1.77,1c-.11.31-.24.63-.37,1l-.2.52c-.63,1.62-1.25,3.26-1.25,3.26a1.29,1.29,0,0,0,.69,1.52l2.81,1.56a16.15,16.15,0,0,0,2,1c.56.26.92.41.92.41a1.37,1.37,0,0,0,1.65-.32l2.48-3.7c.12-.19.24-.36.35-.54,1.13.52,1.87.84,1.88.84l1.88.81-.32,1.54c-.32,1.71-.66,3.41-.66,3.42a1.32,1.32,0,0,0,1,1.34l6.18,2a1.29,1.29,0,0,0,1.58-.59l1.44-3.21c.17-.42.35-.85.52-1.24l.09-.22,2,.43s.78.18,2,.42c0,.5,0,1.05,0,1.6,0,1.75-.06,3.52-.06,3.52a1.35,1.35,0,0,0,1.18,1.21l6.46.8a1.34,1.34,0,0,0,1.43-.84s.42-1.69.82-3.39l.37-1.52c1.22,0,2.06,0,2.06,0l2,0,.06.44c.06.37.11.76.18,1.14l.55,3.44a1.32,1.32,0,0,0,1.33,1h0s.38,0,.94,0,1.48,0,2.35-.11l3.23-.25a1.28,1.28,0,0,0,1.25-1.08l.25-3.48c0-.54,0-1.08.07-1.56l.48,0,1-.09.6-.11,2-.34c.16.46.33,1,.49,1.51.59,1.64,1.15,3.28,1.15,3.29a1.31,1.31,0,0,0,1.52.73l3.2-.6,3.13-.83a1.35,1.35,0,0,0,1.05-1.31s-.2-1.72-.38-3.45l0-.29c-.05-.46-.1-.89-.15-1.31,1.15-.3,1.93-.53,1.93-.53s.25-.05.63-.17.77-.27,1.3-.47l.05,0,.35.63.39.74c.87,1.52,1.7,3,1.71,3.06a1.33,1.33,0,0,0,1.59.41s1.52-.56,3-1.15a23,23,0,0,0,3-1.32,1.3,1.3,0,0,0,.81-1.47l-1-3.38c-.16-.51-.32-1-.46-1.5l1.82-.91,1.86-.92.3.38.68.85,2.19,2.7a1.36,1.36,0,0,0,1.67.14l5.49-3.46a1.35,1.35,0,0,0,.54-1.61s-.77-1.59-1.55-3.16l-.72-1.42,1.62-1.24,1.63-1.27c.19.17.39.34.59.53l.61.54c1.34,1.14,2.65,2.29,2.65,2.3a1.41,1.41,0,0,0,1.71-.13l4.73-4.44a1.33,1.33,0,0,0,.29-1.65l-2.06-2.81c-.32-.43-.64-.87-.94-1.26.8-.93,1.35-1.52,1.35-1.53s.54-.61,1.35-1.56l4.38,2.64a1.39,1.39,0,0,0,1.61-.41s.28-.32.64-.78a15.86,15.86,0,0,0,1.4-1.78l1.87-2.62a1.32,1.32,0,0,0,0-1.67s-1.27-1.23-2.52-2.42c-.27-.26-.53-.5-.79-.73l-.37-.34c.7-1,1.17-1.66,1.19-1.7l1-1.77.4.16,1.07.43c1.62.61,3.24,1.24,3.26,1.25a1.37,1.37,0,0,0,1.51-.72l1.58-2.81a16.92,16.92,0,0,0,1-2c.26-.55.43-.92.44-.93a1.34,1.34,0,0,0-.34-1.65s-1.45-1-2.91-2l-1.11-.7-.21-.13c.48-1.13.82-1.87.83-1.89s.31-.77.8-1.91l.15,0c.44.11.92.21,1.4.3L366,296l.15,0a1.38,1.38,0,0,0,1.2-1l2-6.17a1.27,1.27,0,0,0-.61-1.59s-1.58-.72-3.19-1.41l-1.26-.54-.22-.09c.28-1.22.44-2,.44-2s.17-.81.44-2c.5,0,1.05,0,1.59,0h0l3.49.08a1.42,1.42,0,0,0,1.24-1.21l.74-6.41a1.24,1.24,0,0,0-.8-1.45s-1.69-.44-3.38-.83l-.57-.14-1-.23c0-1.24.06-2,.06-2.06s0-.82,0-2l1.57-.24,3.45-.56a1.37,1.37,0,0,0,1-1.35,30.53,30.53,0,0,0-.1-3.28Zm-.46,6.48c0,.33-.2.57-.32.59l-3.44.56-1.92.3-.33.05v.47c0,1.32,0,2.23,0,2.23s0,.87-.06,2.18a1.64,1.64,0,0,0,0,.22v.32l.32.07c.39.08.82.19,1.28.3l.58.13c1.67.4,3.35.83,3.37.84s.25.26.2.55l-.74,6.4c-.07.32-.31.54-.44.54l-3.49-.08c-.65,0-1.31,0-1.93,0l-.43.06v.41c-.29,1.32-.47,2.19-.47,2.19s-.18.87-.45,2.08a.76.76,0,0,0-.06.34v.26l.75.32,1.26.54c1.6.69,3.18,1.4,3.19,1.41a.49.49,0,0,1,.17.6l-2,6.17c-.1.26-.31.44-.46.44l-3.42-.66c-.47-.08-.94-.19-1.37-.29l-.82-.18-.17.47c-.53,1.22-.87,2.05-.87,2.05s-.37.82-.88,2c0,0,0,.07,0,.06l-.35.36.93.59,1.1.69c1.45,1,2.9,2,2.9,2a.56.56,0,0,1,.06.64s-.18.38-.44,1a17.24,17.24,0,0,1-1,1.91l-1.59,2.81c-.14.25-.35.4-.54.36l-3.24-1.24-1.06-.43-1.05-.42L353,309.21s-.56.77-1.37,1.94l-.2.28.25.24.63.59c.25.22.51.47.78.72,1.24,1.18,2.51,2.41,2.52,2.42a.6.6,0,0,1-.09.62l-1.87,2.62a15.8,15.8,0,0,1-1.35,1.73c-.37.46-.64.77-.64.77-.17.19-.43.35-.61.24l-3-1.77-1.83-1.14-.2.11a.73.73,0,0,0-.23.19l-1.46,1.7s-.6.65-1.49,1.68l-.4.23.28.37c.36.45.75,1,1.14,1.51l2.06,2.81a.58.58,0,0,1-.18.59L341,332.1a.68.68,0,0,1-.63.11s-1.31-1.15-2.66-2.3l-.59-.53-.84-.74-.21-.18-.24.13-.17.12-1.79,1.38s-.69.54-1.83,1.4l-.34.18,1.05,2.07c.77,1.56,1.54,3.15,1.54,3.15a.61.61,0,0,1-.27.6l-5.46,3.44c-.22.13-.55.13-.63,0l-2.19-2.7-.67-.84-.52-.64-.23-.23-.28.13-.15.09-2,1-2,1-.43.23.09.31c.16.56.36,1.2.55,1.83l1,3.36c0,.15-.11.4-.39.53a23.13,23.13,0,0,1-2.92,1.29c-1.52.6-3,1.15-3.05,1.16-.22.1-.53.05-.59-.06s-.84-1.54-1.71-3.05l-.39-.74c-.18-.33-.35-.64-.49-.92l-.12-.22h-.24a.54.54,0,0,0-.2,0l-.33.12c-.51.19-.93.35-1.25.45a5.89,5.89,0,0,1-.59.16s-.93.27-2.27.63l-.33.09,0,.33c.05.52.12,1.07.19,1.66l0,.29c.18,1.73.38,3.45.38,3.45s-.18.37-.46.44l-3.1.83-3.17.59a.6.6,0,0,1-.62-.2s-.56-1.66-1.15-3.29c-.2-.63-.42-1.29-.6-1.83l-.11-.32-2.67.45-.57.11-1,.08-.62.06-.16,0h-.37l0,.38c0,.56-.07,1.23-.09,1.9l-.24,3.48c0,.11-.22.3-.52.33l-3.25.24a22.24,22.24,0,0,1-2.27.11c-.54,0-.89,0-.92,0a.58.58,0,0,1-.55-.31l-.56-3.46c-.07-.39-.12-.76-.18-1.13s-.07-.53-.12-.79l-.05-.33h-.47l-2.25,0s-.88,0-2.17,0h-.05l-.43-.19-.57,2.32c-.4,1.7-.81,3.39-.82,3.39s-.27.21-.57.23l-6.42-.79c-.29,0-.5-.28-.5-.41s0-1.77.06-3.5c0-.68,0-1.36,0-1.94v-.24l-.21-.11a.38.38,0,0,0-.24-.06l-2.18-.48-2.2-.47-.14-.05H264l-.33.77c-.17.4-.35.83-.52,1.25l-1.43,3.2a.51.51,0,0,1-.6.15L255,348c-.27-.09-.44-.34-.42-.43s.34-1.71.65-3.41l.4-1.88.16-.48h-.49l-.11,0-2-.85-2-.91-.44-.23-.2.32-.53.8-2.48,3.71a.65.65,0,0,1-.65,0s-.36-.15-.94-.42a14.9,14.9,0,0,1-1.93-1l-2.8-1.56c-.28-.16-.39-.42-.34-.52s.61-1.65,1.24-3.27l.21-.52c.17-.45.35-.89.49-1.29l.12-.33-.3-.16c-1.21-.66-2-1.13-2-1.13s-.81-.56-1.94-1.38l-.29-.21-.24.26c-.24.27-.49.54-.77.83l-.55.59-2.4,2.51c-.16.17-.44.05-.62-.08l-2.65-1.88a18,18,0,0,1-1.71-1.33c-.45-.39-.76-.65-.77-.65a.59.59,0,0,1-.23-.62l1.78-3,1-1.65.17-.39-.37-.2-1.69-1.49s-.67-.57-1.67-1.47l-.28.29.19-.38-.24-.24-.28.2-.77.58-.75.57-2.83,2c-.09.08-.4,0-.57-.2l-4.42-4.71a.6.6,0,0,1-.13-.64s1.15-1.33,2.3-2.63l.45-.51.84-1,.34-.4-.4-.19,0,0c-.81-1.05-1.36-1.74-1.36-1.74s-.54-.72-1.33-1.73l-.07-.1-.18-.38-.86.44c-.4.19-.82.41-1.23.62-1.57.76-3.15,1.55-3.22,1.56a.72.72,0,0,1-.51-.28L208.83,310a.54.54,0,0,1,0-.61l2.67-2.19,1.77-1.4-.16-.29a.42.42,0,0,0-.08-.12c-.61-1.18-1-2-1-2s-.4-.79-1-2a.61.61,0,0,0-.07-.1l-.14-.31-.34.09-1.81.56c-1.69.47-3.38,1-3.41,1a.67.67,0,0,1-.49-.41,23.4,23.4,0,0,1-1.29-2.91l-1.15-3a.58.58,0,0,1,.06-.64l3-1.7,1.69-.89.29-.16-.1-.31a1.2,1.2,0,0,0-.06-.18l-.3-.82c-.1-.27-.19-.51-.25-.65-.1-.4-.16-.6-.16-.6l-.63-2.3-.09-.34-.35.05-1.49.19-3.91.4c-.14,0-.34-.17-.42-.46l-.83-3.07c-.28-1.61-.58-3.19-.58-3.19a.6.6,0,0,1,.2-.61l3.29-1.15.68-.22,1.16-.39.32-.12-.06-.33c-.25-1.38-.41-2.33-.41-2.34l-.1-.56c0-.26,0-.59-.08-1l-.05-.61a.46.46,0,0,0,0-.14v-.37l-.37,0-1,0-.9-.05-3.49-.23a.59.59,0,0,1-.32-.55s-.12-1.6-.26-3.22a26.49,26.49,0,0,1-.08-3.19.62.62,0,0,1,.32-.58l3.91-.62,1.43-.21.35,0v-.5c0-1.35,0-2.22,0-2.22s0-.91.06-2.26l0-.46-.3-.08c-.56-.14-1.22-.28-1.86-.42-1.68-.43-3.36-.83-3.37-.83a.55.55,0,0,1-.24-.59l.77-6.41c0-.3.28-.5.41-.5l3.5,0,2.23.07.14-.46c.28-1.33.47-2.2.48-2.21s.17-.86.48-2.25l0-.4-.23-.11c-.42-.19-.92-.4-1.43-.61l-3.56-1.58a.56.56,0,0,1-.15-.62l2-6.17c.08-.25.29-.45.46-.41,0,0,1.68.31,3.4.65l1,.21.84.17.31,0,.14-.28a.88.88,0,0,0,.07-.2l.86-2,.89-2.06-.36-.16.42.05.14-.31-4.78-3.2a.58.58,0,0,1-.05-.66s.15-.35.42-.92a17.13,17.13,0,0,1,1-1.94l1.56-2.81a.6.6,0,0,1,.54-.34l3.24,1.22,1.05.42.76.3.32.13,1.32-2.33,1.57-2.22-.25-.24c-.41-.4-.91-.88-1.4-1.33-1.25-1.2-2.51-2.39-2.52-2.39a.57.57,0,0,1,.09-.64l1.86-2.64c.48-.68,1-1.31,1.33-1.73s.66-.74.67-.76a.67.67,0,0,1,.6-.25s1.51.89,3,1.8c.49.31,1,.61,1.45.88l.48.27.22-.24a.87.87,0,0,0,.12-.14c.88-1,1.44-1.64,1.44-1.64l1.47-1.67a.49.49,0,0,0,.18-.21l.1-.21-.14-.19c-.29-.4-.62-.84-1-1.3l-.18-.25c-1-1.38-2-2.77-2-2.77a.57.57,0,0,1,.19-.6l4.74-4.43a.78.78,0,0,1,.63-.13s1.3,1.15,2.63,2.3l.77.69.67.6.37.17.27-.27c1-.81,1.76-1.34,1.76-1.35l1.82-1.4a.58.58,0,0,0,.12-.1l.2-.2-.12-.26-.42-.82-.45-.88L234,194.35a.58.58,0,0,1,.25-.58l5.5-3.45a.61.61,0,0,1,.62,0l2.18,2.7c.41.51.83,1.05,1.18,1.5l.26.4.32-.34.08-.05,2-1,2-1a.75.75,0,0,0,.18-.08l.31-.15-.11-.33c-.17-.55-.37-1.18-.55-1.83-.5-1.67-1-3.35-1-3.35s.1-.4.4-.55a29.07,29.07,0,0,1,2.9-1.28c1.5-.56,3-1.15,3-1.15a.71.71,0,0,1,.65.07s.83,1.53,1.68,3l.91,1.71.26.47.33-.34h0l1-.36,3.71-1.08,0-.34c-.06-.56-.14-1.24-.24-1.91l-.36-3.49c0-.1.17-.34.46-.42l3.11-.83,3.16-.57a.73.73,0,0,1,.63.17s.55,1.67,1.12,3.31l.17.49c.16.48.32.94.45,1.35l.11.33.34-.06,2.3-.43s.25,0,.6-.08l.44,0,1.15-.12h.51l0-.37c0-.58.08-1.26.1-1.92.13-1.72.23-3.47.23-3.47s.23-.32.55-.34l3.24-.24c.82-.08,1.64-.1,2.19-.1s1,0,1,0c.3,0,.54.17.55.3l.56,3.45c.08.47.15.94.21,1.37l.12.87h.49c1.34,0,2.24,0,2.23,0s.91.05,2.26.09h.45l.08-.3c.14-.56.3-1.2.44-1.87l.83-3.37c0-.11.23-.26.57-.21l6.39.74c.32.07.54.31.54.44s0,1.74-.06,3.48c0,.67,0,1.37-.06,1.94l-.05.41h.41l.16-.37,0,.41c1.31.28,2.19.45,2.19.45s.87.18,2.28.5l.36.13.15-.35c.12-.3.25-.62.4-.95l.35-.81c.69-1.61,1.4-3.19,1.4-3.19a.63.63,0,0,1,.62-.2l6.16,2c.3.1.46.33.43.45l-.63,3.4c-.11.47-.2.92-.29,1.34l-.15.75.16.15a.48.48,0,0,0,.26.14l2,.89s.79.35,2,.85a.44.44,0,0,0,.15.08l.32.18.21-.3c.32-.48.7-1.06,1-1.62,1-1.43,1.95-2.9,1.95-2.9a.62.62,0,0,1,.66,0s.37.15.94.41a19.27,19.27,0,0,1,1.92,1c1.42.79,2.81,1.59,2.81,1.59.29.16.41.42.36.54l-1.25,3.25c-.24.63-.49,1.26-.71,1.77l-.14.32,2.34,1.35s.8.56,2,1.35l.28.19.23-.24.59-.62.72-.77,2.42-2.53a.72.72,0,0,1,.63.08s1.31,1,2.7,1.92a17,17,0,0,1,1.65,1.29l.76.66a.6.6,0,0,1,.25.6l-1.78,3-.14.22-.88,1.43-.17.41.37.2,1.68,1.46s.66.6,1.67,1.46l.21.45.81-.61,1.13-.84,2.78-2c.11-.07.43,0,.61.2l4.43,4.75a.48.48,0,0,1,.1.6l-2.32,2.7-1.25,1.39-.16.2.1.23a.55.55,0,0,0,.15.19l1.35,1.79s.55.72,1.35,1.72a1,1,0,0,0,.15.22l.21.21.26-.14,1.47-.76.22-.11c1.59-.79,3.17-1.56,3.25-1.57a.68.68,0,0,1,.5.28l3.43,5.47a.55.55,0,0,1,0,.63s-1.34,1.1-2.7,2.18c-.46.39-.91.75-1.33,1.07l-.4.31.15.29a.76.76,0,0,0,.08.15l1,2,1,2a.66.66,0,0,0,.1.18l.17.25.28-.09c.53-.18,1.16-.37,1.81-.57,1.68-.5,3.37-1,3.41-1a.69.69,0,0,1,.49.4,30.38,30.38,0,0,1,1.29,2.93l1.14,3c.11.29,0,.57-.07.62l-3,1.71-.25.13-1.44.78-.36.18.25.49c.21.6.41,1.11.53,1.45l.89,3.2.33,0,1.91-.22,3.5-.4c.12,0,.34.19.43.48,0,0,.39,1.57.82,3.08l.56,3.18a.56.56,0,0,1-.18.61l-3.29,1.15c-.31.09-.61.2-.91.3l-.91.29-.35.11.07.35c.26,1.4.41,2.33.41,2.33s0,.24.08.61.1.93.16,1.55v.53l.37,0,1.93.12c1.74.1,3.46.22,3.47.22s.31.22.33.52l.24,3.24A28.89,28.89,0,0,1,371.55,264.74Z" transform="translate(-195.89 -73)"/><path class="cls-2" d="M313,220a7.21,7.21,0,0,0,7.72-12.18,7.26,7.26,0,0,0-3.86-1.12A7.21,7.21,0,0,0,313,220Zm-1.55-9.52a6.39,6.39,0,1,1-.85,4.82A6.36,6.36,0,0,1,311.49,210.46Z" transform="translate(-195.89 -73)"/><path class="cls-2" d="M224.41,271.84a7.21,7.21,0,1,0,0,14.41,7.36,7.36,0,0,0,1.55-.17,7.25,7.25,0,0,0,5.45-8.63A7.14,7.14,0,0,0,224.41,271.84Zm1.38,13.46a6.4,6.4,0,1,1-2.8-12.5,6.25,6.25,0,0,1,1.42-.16,6.35,6.35,0,0,1,6.22,5A6.44,6.44,0,0,1,225.79,285.3Z" transform="translate(-195.89 -73)"/><path class="cls-2" d="M343.9,245a7.91,7.91,0,0,0-1.6.17,7.21,7.21,0,0,0,1.58,14.24,7.55,7.55,0,0,0,1.57-.17A7.21,7.21,0,0,0,343.9,245Zm5.41,10.6a6.41,6.41,0,0,1-4,2.86,6.59,6.59,0,0,1-1.4.15,6.4,6.4,0,0,1-1.4-12.65,6.26,6.26,0,0,1,1.42-.17,6.38,6.38,0,0,1,6.23,5A6.31,6.31,0,0,1,349.31,255.6Z" transform="translate(-195.89 -73)"/><path class="cls-2" d="M339.71,292.29a7.1,7.1,0,0,0-3.85-1.13,7.21,7.21,0,0,0-3.85,13.3,7.19,7.19,0,0,0,9.95-2.22A7.25,7.25,0,0,0,339.71,292.29Zm1.57,9.52a6.39,6.39,0,0,1-8.84,2A6.41,6.41,0,0,1,335.86,292a6.38,6.38,0,0,1,3.42,1A6.45,6.45,0,0,1,341.28,301.81Z" transform="translate(-195.89 -73)"/><path class="cls-2" d="M297.53,318.15a7,7,0,0,0-1.57.18,7.21,7.21,0,0,0,1.57,14.24,7.75,7.75,0,0,0,1.59-.18,7.21,7.21,0,0,0,5.46-8.61A7.29,7.29,0,0,0,297.53,318.15ZM303,328.79a6.34,6.34,0,0,1-4,2.82,6.87,6.87,0,0,1-1.42.16,6.41,6.41,0,0,1-1.4-12.66,6.08,6.08,0,0,1,1.4-.16,6.49,6.49,0,0,1,6.27,5A6.41,6.41,0,0,1,303,328.79Z" transform="translate(-195.89 -73)"/><path class="cls-2" d="M255.23,311.28a7.19,7.19,0,0,0-9.95,2.22,7.25,7.25,0,0,0,2.24,10,7.33,7.33,0,0,0,3.83,1.09,7.19,7.19,0,0,0,3.88-13.27Zm1.54,9.5a6.44,6.44,0,0,1-8.82,2A6.41,6.41,0,0,1,251.38,311a6.39,6.39,0,0,1,5.39,9.83Z" transform="translate(-195.89 -73)"/><path class="cls-2" d="M239.43,231.28a7.21,7.21,0,0,0-14.06,3.16,7.2,7.2,0,0,0,13.11,2.26A7.13,7.13,0,0,0,239.43,231.28Zm-1.63,5a6.38,6.38,0,1,1,.85-4.81A6.37,6.37,0,0,1,237.8,236.27Z" transform="translate(-195.89 -73)"/></g></g></svg>