<?xml version="1.0" encoding="utf-8"?>
<!-- Generator: Adobe Illustrator 25.2.0, SVG Export Plug-In . SVG Version: 6.00 Build 0)  -->
<svg version="1.1" id="b42f194e-2661-4b51-9d27-71868f828c93"
	 xmlns="http://www.w3.org/2000/svg" xmlns:xlink="http://www.w3.org/1999/xlink" x="0px" y="0px" viewBox="0 0 600 600"
	 style="enable-background:new 0 0 600 600;" xml:space="preserve">
<style type="text/css">
	.st0{fill:#E5E5E5;}
	.st1{fill:#FFFFFF;}
	.st2{fill:#E6E6E6;}
	.st3{fill:#AC92EC;stroke:#455A64;stroke-width:4;stroke-miterlimit:10;}
	.st4{fill:#FFFFFF;stroke:#455A64;stroke-width:4;stroke-miterlimit:10;}
	.st5{fill:#57B894;}
</style>
<path class="st0" d="M475.8,408H124.2V189h351.7v219H475.8z M132.4,399.8h335.3V197.2H132.4V399.8z"/>
<rect x="128.3" y="193.1" class="st1" width="343.5" height="210.8"/>
<path class="st2" d="M471.7,246.5v-12.9h-47.6v-40.5h-12.9v40.5h-84.8v-40.5h-12.9v40.5H182.6v-40.5h-12.9v40.5h-41.4v12.9h41.3
	v50.3h-41.3v13h41.3v53.9h-41.3v12.9h111.1v27.1h12.9v-27.2h61.1v27.2h12.9v-27.2h145.4v-12.9H326.3v-53.9h145.4v-13h-47.6v-50.3
	h47.6V246.5z M313.4,246.5v15.8H182.6v-15.8L313.4,246.5L313.4,246.5z M182.6,275.3h130.8v21.5H182.6V275.3z M182.6,363.7v-53.9
	h56.8v53.9H182.6z M313.4,363.7h-61.1v-53.9h61.1V363.7z M411.1,296.8h-84.8v-50.3h84.8L411.1,296.8z"/>
<path class="st3" d="M382.3,162c0,34.3-62,110.6-62,110.6s-62-76.3-62-110.6s27.8-62.1,62.1-62.1S382.3,127.7,382.3,162L382.3,162z"
	/>
<path class="st4" d="M348.6,159.3c0,15.7-12.7,28.4-28.4,28.4c-15.7,0-28.4-12.7-28.4-28.4s12.7-28.4,28.4-28.4l0,0
	C335.9,131,348.6,143.7,348.6,159.3z"/>
<circle class="st3" cx="320.2" cy="300.7" r="16.7"/>
<path class="st5" d="M300,438.5c-17,0-30.8,13.8-30.8,30.8s13.8,30.8,30.8,30.8s30.8-13.8,30.8-30.8l0,0
	C330.8,452.3,317,438.5,300,438.5z M293.7,485.6l-15.8-15.8l4.4-4.4l11.4,11.4l24-24l4.4,4.4L293.7,485.6L293.7,485.6z"/>
</svg>
