<?xml version="1.0" encoding="utf-8"?>
<!-- Generator: Adobe Illustrator 25.2.0, SVG Export Plug-In . SVG Version: 6.00 Build 0)  -->
<svg version="1.1" id="fc128632-8bb2-491c-83fe-dc3898cfdda9"
	 xmlns="http://www.w3.org/2000/svg" xmlns:xlink="http://www.w3.org/1999/xlink" x="0px" y="0px" viewBox="0 0 600 600"
	 style="enable-background:new 0 0 600 600;" xml:space="preserve">
<style type="text/css">
	.st0{fill:#A0D468;}
	.st1{fill:#455A64;}
	.st2{fill:#3F3D56;}
	.st3{fill:#E4E4E4;}
	.st4{fill:#E6E6E6;}
</style>
<path class="st0" d="M431.8,300.7c0,38.6-13.5,71.6-39.2,96.2c-18.2,17.4-46.3,41.9-46.3,67.7V486h-85.5v-21.4
	c0-26.1-28.2-50.6-46.3-67.7c-25.1-23.7-39.2-58.9-39.2-96.2v-0.8c0.2-70.8,57.8-128.1,128.6-127.9S432,229.9,431.8,300.7
	L431.8,300.7z"/>
<path id="ecc2cf6c-8ee8-498c-972d-3c77e28b77e9" class="st1" d="M346.3,488.9c-1.7,0-3-1.3-3-3v-21.4c0-25.1,24.8-48.6,42.9-65.7
	c1.5-1.4,3-2.8,4.4-4.1c25-23.9,38.3-56.4,38.3-94c0-70.2-55-125.2-125.2-125.2h-0.4c-68.8,0.1-124.6,55.7-124.9,124.5v0.7
	c0,36.8,13.9,71.1,38.2,94c1.2,1.2,2.5,2.4,3.8,3.6c18.3,17.2,43.4,40.7,43.4,66.3V486c0,1.7-1.3,3-3,3s-3-1.3-3-3l0,0v-21.4
	c0-23-24-45.5-41.5-61.9l-3.8-3.6c-25.5-24.1-40.1-59.9-40.1-98.4V300c0.2-72.1,58.9-130.5,130.9-130.5h0.4
	c72.1-0.4,130.9,57.8,131.2,129.9v1.4c0,39.3-13.9,73.3-40.1,98.4c-1.4,1.4-2.9,2.7-4.4,4.2c-17.3,16.4-41,38.8-41,61.4v21.4
	C349.3,487.6,348,488.9,346.3,488.9L346.3,488.9z"/>
<path id="b22bef41-3cd7-4c1e-881c-c9a642005cb0" class="st0" d="M332.1,527.4h-57c-2.8,0-5-2.2-5-5s2.2-5,5-5h57c2.8,0,5,2.2,5,5
	S334.8,527.4,332.1,527.4z"/>
<path class="st2" d="M309.7,560.9h-12.3c-4.3,0-8.4-1.1-12.1-3.3c-1.1-0.6-1.6-2-1.3-3.2c0.3-1.3,1.5-2.1,2.8-2.1h33.4
	c1.3,0,2.5,0.9,2.8,2.1c0.4,1.2-0.2,2.6-1.3,3.2C318.1,559.8,314,560.9,309.7,560.9z"/>
<path class="st2" d="M332.1,543.2h-57.3l-0.2-0.4c-0.3-1.4,0-2.9,0.9-4.1c0.9-1.2,2.3-1.8,3.8-1.8h48.5c1.5,0,2.9,0.7,3.8,1.8
	s1.2,2.6,0.9,4l-0.1,0.4L332.1,543.2z"/>
<path id="e0eb6627-54a4-4797-861b-0d156b8b485b" class="st3" d="M171,182.8c-1.2,0-2.4-0.4-3.3-1.2l-42.9-37.5
	c-2.1-1.8-2.3-5-0.5-7.1s5-2.3,7.1-0.5l42.9,37.5c2.1,1.8,2.3,5,0.5,7.1C173.8,182.2,172.4,182.9,171,182.8L171,182.8z"/>
<path id="e13fc22b-cd18-4b6e-a2d4-df4b74c6b7e7" class="st3" d="M429.1,182.8c-2.8,0-5-2.2-5-5c0-1.4,0.6-2.8,1.7-3.8l42.9-37.5
	c2.1-1.8,5.2-1.6,7.1,0.5c1.8,2.1,1.6,5.2-0.5,7l-42.9,37.5C431.4,182.4,430.3,182.8,429.1,182.8z"/>
<path id="a74da646-4683-465e-97fe-dd817e7fc328" class="st0" d="M346.3,509.7h-85.5c-2.8,0-5-2.2-5-5s2.2-5,5-5h85.5
	c2.8,0,5,2.2,5,5S349.1,509.7,346.3,509.7z"/>
<path class="st4" d="M301.5,379.1L283.7,486h-10.1l18.1-108.5c0.5-2.7,3-4.6,5.8-4.1S301.9,376.4,301.5,379.1z"/>
<path class="st4" d="M335.6,485.9h-10.1L307.7,379c-0.5-2.7,1.4-5.3,4.1-5.8s5.3,1.4,5.8,4.1L335.6,485.9z"/>
<path id="be3a5c8a-fbb4-472c-819b-e8dd06032f6a" class="st4" d="M271.1,375.5c0-2.8,2.2-5,5-5h55c2.8,0,5,2.2,5,5s-2.2,5-5,5h-55
	C273.3,380.5,271.1,378.3,271.1,375.5z"/>
<path id="e9f776ed-f4b6-47dc-b212-c247d99ecb23" class="st3" d="M303.6,132.9c-2.8,0-5-2.2-5-5V42.4c0-2.8,2.2-5,5-5s5,2.2,5,5v85.5
	C308.6,130.7,306.3,132.9,303.6,132.9z"/>
</svg>
