<?xml version="1.0" encoding="utf-8"?>
<!-- Generator: Adobe Illustrator 25.2.0, SVG Export Plug-In . SVG Version: 6.00 Build 0)  -->
<svg version="1.1" id="Layer_1" xmlns="http://www.w3.org/2000/svg" xmlns:xlink="http://www.w3.org/1999/xlink" x="0px" y="0px"
	 viewBox="0 0 600 600" style="enable-background:new 0 0 600 600;" xml:space="preserve">
<style type="text/css">
	.st0{fill:#263238;}
	.st1{fill:#CCCCCC;}
	.st2{fill:#EC87C0;}
	.st3{fill:#455A64;}
	.st4{fill:#FFFFFF;}
	.st5{fill:#FAFAFA;}
	.st6{fill:#37474F;}
</style>
<g>
	<g>
		<path class="st0" d="M192.1,215.9c0,0.1-1.9,0.5-5.1,1.7c-4.6,1.7-8.9,3.9-12.9,6.7c-5.9,4.2-11.2,9.3-15.5,15.1
			c-5.2,7.1-9.3,15-12.1,23.4c-2.7,8.5-4.4,17.2-5.3,26.1c-0.9,8.1-1.1,15.6-1.2,21.7c-0.1,6.1,0,11.2,0,14.7v4c0,0.5,0,0.9,0,1.4
			c-0.1-0.5-0.1-0.9-0.1-1.4l-0.2-4c-0.1-3.5-0.3-8.5-0.3-14.7c0-7.3,0.3-14.6,1-21.8c0.8-8.9,2.6-17.7,5.3-26.2
			c2.8-8.5,7-16.5,12.3-23.7c4.3-5.9,9.6-11,15.6-15.2c4.1-2.8,8.5-5,13.2-6.5c1.3-0.4,2.6-0.8,3.9-1.1
			C191.2,216,191.6,215.9,192.1,215.9z"/>
		<path class="st0" d="M132.2,330.7c-0.1-0.5-0.1-1-0.1-1.5c0-1.1-0.1-2.6-0.2-4.4c-0.1-3.9-0.3-9.3-0.3-16.2s0.2-14.9,1-23.9
			c0.9-9.8,2.6-19.5,5.3-28.9c2.8-9.4,6.9-18.4,12.2-26.7c4.3-6.8,9.6-12.8,15.8-18c4.1-3.5,8.7-6.5,13.5-8.8
			c1.3-0.6,2.7-1.2,4.1-1.7c0.5-0.2,0.9-0.4,1.4-0.5c-0.4,0.3-0.9,0.5-1.4,0.7c-1.3,0.6-2.6,1.2-3.9,2c-4.8,2.4-9.2,5.4-13.3,9
			c-6,5.2-11.2,11.3-15.5,18c-5.2,8.2-9.3,17.1-12,26.5s-4.5,19-5.4,28.7c-0.9,9-1.1,17.1-1.2,23.9c-0.1,6.8,0,12.3,0,16.1v4.4
			C132.3,329.6,132.3,330.2,132.2,330.7z"/>
		<path class="st0" d="M356.7,88.4c-0.6,1.1,3,68.4,3,68.4l8.5-0.1l0.3-68.6L356.7,88.4z"/>
		<polygon class="st0" points="372.5,120.7 352.3,122.3 353.3,152.8 330.7,165.4 331.3,185.5 346.9,205.8 346.7,176.9 365.2,166.7 
			381.4,174.6 381.2,205.7 397.2,185.1 395.8,166.5 374.1,151.3 		"/>
		<path class="st1" d="M312.4,106l-82.8,99.8c-8.7,10.5-24.2,11.9-34.6,3.2l0,0c-10.4-8.7-11.8-24.2-3.2-34.6l82.8-99.9
			c8.7-10.5,24.2-11.9,34.7-3.2l0,0C319.7,80.1,321.1,95.6,312.4,106z"/>
		<path class="st1" d="M288.7,74.6h73.7c8.5,0,15.4,6.9,15.4,15.4l0,0c0,8.5-6.9,15.4-15.4,15.4h-73.7c-8.5,0-15.4-6.9-15.4-15.4
			l0,0C273.3,81.5,280.2,74.6,288.7,74.6z"/>
		<path class="st1" d="M215.4,379.5L215.4,379.5c-19.1,0-34.6-15.5-34.6-34.6V196.5c0-19.1,15.5-34.6,34.6-34.6l0,0
			c19.1,0,34.6,15.5,34.6,34.6l0,0v148.4C250,364,234.5,379.5,215.4,379.5L215.4,379.5z"/>
		<ellipse class="st0" cx="216.1" cy="346.5" rx="17" ry="17"/>
		<circle class="st0" cx="215.4" cy="191.8" r="17"/>
		<circle class="st0" cx="290.8" cy="90.1" r="10.3"/>
		<path class="st0" d="M368.9,85.1c2.7,2.7,2.7,7.2,0,9.9c-2.7,2.7-7.2,2.7-9.9,0c-2.7-2.7-2.7-7.2,0-9.9l0,0
			C361.7,82.4,366.2,82.4,368.9,85.1z"/>
		<path class="st0" d="M249.7,199.3c0-4.4-0.8-8.8-2.1-13c-1.6-4.5-4-8.6-7.2-12.2c-7.7-9.1-19.7-13.3-31.4-11.1
			c-4.7,0.8-9.2,2.5-13.3,4.9c-3.7,2.4-6.9,5.3-9.7,8.7c0.1-0.3,0.3-0.5,0.5-0.8c0.5-0.7,1-1.5,1.6-2.1c2.1-2.5,4.6-4.7,7.4-6.4
			c4.1-2.6,8.7-4.4,13.5-5.3c12-2.4,24.4,2,32.2,11.4c3.2,3.7,5.6,8,7.2,12.6c1,3.1,1.6,6.4,1.7,9.6c0.1,0.9,0.1,1.8,0,2.7
			C250,198.7,249.9,199,249.7,199.3z"/>
		<path class="st0" d="M311.3,72.3c0.4,0.4,0.7,0.8,1,1.2c0.8,1.2,1.4,2.4,1.9,3.7c0.9,1.9,1.5,4,2,6c0.5,2.6,0.7,5.2,0.6,7.8
			c-0.1,2.6-0.6,5.2-1.3,7.7c-0.6,2-1.4,4-2.4,5.8c-0.7,1.3-1.5,2.4-2.4,3.5c-0.6,0.8-1,1.2-1.1,1.1s1.2-1.8,2.8-5
			c0.9-1.9,1.7-3.8,2.2-5.8c0.6-2.4,1-4.9,1.2-7.3c0.1-2.5-0.1-5-0.5-7.5c-0.4-2-0.9-4-1.7-5.8C312.4,74.2,311.1,72.5,311.3,72.3z"
			/>
		<path class="st1" d="M71.7,323.8h446.4c7.3,0,13.2,13.7,13.2,30.7l0,0c0,17-5.9,30.7-13.2,30.7H71.7c-7.3,0-13.2-13.7-13.2-30.7
			l0,0C58.6,337.6,64.5,323.8,71.7,323.8z"/>
		<circle class="st0" cx="444.4" cy="356.4" r="15.3"/>
		<circle class="st0" cx="302.6" cy="354.7" r="15.2"/>
		
			<ellipse transform="matrix(3.449454e-02 -0.9994 0.9994 3.449454e-02 -244.0614 460.1198)" class="st0" cx="116.1" cy="356.4" rx="15.3" ry="15.3"/>
		<path class="st0" d="M251.7,323.8c0,0.3-15.9,0.5-35.6,0.5s-35.6-0.2-35.6-0.5s16-0.5,35.6-0.5S251.7,323.6,251.7,323.8z"/>
		<rect x="263" y="215.9" class="st2" width="64.7" height="108"/>
		<path class="st0" d="M313.6,323.5c-0.3,0-0.5-24-0.5-53.5c0-29.6,0.2-53.5,0.5-53.5s0.5,24,0.5,53.5S313.9,323.5,313.6,323.5z"/>
		
			<rect x="369.4" y="261.5" transform="matrix(1 -2.967029e-03 2.967029e-03 1 -0.8644 1.2379)" class="st2" width="94.8" height="60.9"/>
		<path class="st3" d="M473.3,262.4c0,5-4.1,9.1-9.1,9.1s-9.1-4.1-9.1-9.1s4.1-9.1,9.1-9.1C469.2,253.3,473.3,257.4,473.3,262.4z"/>
		<polygon class="st4" points="463.2,266.8 458.8,262.4 460.2,261 463.2,264 468.1,258.8 469.6,260.2 		"/>
		<path class="st0" d="M435.9,323.4c-0.3,0-0.5-13.6-0.6-30.6s0.1-30.6,0.4-30.6s0.6,13.7,0.6,30.6S436.1,323.4,435.9,323.4z"/>
		<path class="st5" d="M465.3,295.7c0,0.3-21.7,0.5-48.4,0.5c-26.7,0-48.4-0.2-48.4-0.5s21.7-0.5,48.4-0.5
			C443.7,295.2,465.3,295.4,465.3,295.7z"/>
		<path class="st5" d="M398.9,322.4c-0.3,0-0.5-13.6-0.5-30.4s0.2-30.4,0.5-30.4s0.5,13.7,0.5,30.4S399.2,322.4,398.9,322.4z"/>
		<path class="st5" d="M449.8,322.9c-0.3,0-0.5-13.7-0.5-30.7s0.2-30.6,0.5-30.6s0.5,13.7,0.5,30.7S450.1,322.9,449.8,322.9z"/>
		<path class="st5" d="M397.6,295.8c-0.6,0.1-1.3,0.1-1.9,0c-1.7-0.2-3.4-0.5-5.1-1.1c-2.5-0.8-4.8-2.1-6.8-3.6
			c-1.3-0.9-2.4-2.1-3.2-3.5c-0.4-0.8-0.5-1.8-0.3-2.7c0.2-0.9,0.8-1.7,1.5-2.3c1.4-1.1,3.3-1.4,5-0.9c1.5,0.4,3,1.2,4.2,2.2
			c2.1,1.6,3.8,3.6,5.1,5.9c0.9,1.5,1.5,3.1,2,4.8c0.2,0.6,0.3,1.3,0.3,2c-0.8-2.2-1.7-4.3-2.9-6.3c-1.3-2.1-3.1-4-5.1-5.4
			c-1.2-0.9-2.5-1.6-3.9-2s-3-0.1-4.2,0.7c-1.2,0.9-1.6,2.4-0.9,3.7c0.7,1.3,1.6,2.3,2.8,3.1c2,1.5,4.2,2.8,6.5,3.7
			C393,294.8,395.3,295.4,397.6,295.8z"/>
		<path class="st5" d="M398.4,297.2c-0.1-0.6-0.1-1.2,0-1.7c0.2-1.6,0.7-3.1,1.3-4.5c1.4-3.5,3.8-6.6,6.7-8.9c0.6-0.5,1.3-0.9,2.1-1
			c0.9-0.2,1.8,0,2.5,0.6s1,1.5,0.9,2.4c0,0.8-0.2,1.5-0.5,2.2c-0.5,1.3-1.1,2.6-2,3.8c-1.3,1.9-3,3.6-5,4.8
			c-1.4,0.8-2.9,1.4-4.4,1.7c-0.6,0.2-1.2,0.2-1.7,0.1c2.1-0.6,4-1.4,5.9-2.5c1.9-1.2,3.5-2.8,4.8-4.7c0.7-1.1,1.3-2.3,1.7-3.6
			c0.4-1.2,0.7-2.8-0.2-3.6c-0.5-0.4-1.1-0.5-1.7-0.3s-1.2,0.5-1.7,0.9c-1.1,0.8-2,1.7-2.9,2.7c-1.5,1.7-2.8,3.6-3.7,5.7
			C399.7,293.1,399,295.2,398.4,297.2z"/>
		<g>
			<rect x="123.7" y="384.4" class="st3" width="31.3" height="119.5"/>
			<rect x="120.9" y="384.4" class="st6" width="37" height="12.1"/>
			<rect x="120.9" y="491.8" class="st6" width="37" height="12.1"/>
		</g>
		<g>
			<rect x="433.6" y="384.4" class="st3" width="31.3" height="119.5"/>
			<rect x="430.8" y="384.4" class="st6" width="37" height="12.1"/>
			<rect x="430.8" y="491.8" class="st6" width="37" height="12.1"/>
		</g>
	</g>
	<g>
		<rect x="284.3" y="384.4" class="st3" width="31.3" height="119.5"/>
		<rect x="281.5" y="384.4" class="st6" width="37" height="12.1"/>
		<rect x="281.5" y="491.8" class="st6" width="37" height="12.1"/>
	</g>
	<g id="freepik--Floor--inject-91">
		<polygon class="st0" points="22.3,504.1 93.6,503.8 164.9,503.7 307.5,503.5 450,503.7 521.3,503.8 592.6,504.1 521.3,504.4 
			450,504.5 307.5,504.7 164.9,504.5 93.6,504.4 		"/>
	</g>
</g>
</svg>
