<?xml version="1.0" encoding="utf-8"?>
<!-- Generator: Adobe Illustrator 25.2.0, SVG Export Plug-In . SVG Version: 6.00 Build 0)  -->
<svg version="1.1" id="a1446b94-79a8-45dc-beee-b314ae1acdc1"
	 xmlns="http://www.w3.org/2000/svg" xmlns:xlink="http://www.w3.org/1999/xlink" x="0px" y="0px" viewBox="0 0 600 600"
	 style="enable-background:new 0 0 600 600;" xml:space="preserve">
<style type="text/css">
	.st0{fill:#455A64;}
	.st1{fill:#FFFFFF;}
	.st2{fill:#4FC1E9;}
	.st3{fill:#E5E5E5;}
</style>
<path class="st0" d="M187.9,182.1h2.5v-67.7c0-21.6,17.5-39.2,39.2-39.2l0,0h143.3c21.6,0,39.2,17.5,39.2,39.2l0,0l0,0v371.2
	c0,21.6-17.5,39.2-39.2,39.2l0,0H229.6c-21.6,0-39.2-17.5-39.2-39.2l0,0l0,0V230.2h-2.5L187.9,182.1L187.9,182.1z"/>
<path class="st1" d="M228,85.4h18.7c-2.9,7.1,0.5,15.2,7.6,18.1c1.7,0.7,3.5,1,5.3,1h82.1c7.7,0,13.9-6.2,13.9-13.9
	c0-1.8-0.3-3.6-1-5.3H372c16.2,0,29.2,13.1,29.2,29.2l0,0v370.6c0,16.2-13.1,29.2-29.2,29.2H228c-16.2,0-29.2-13.1-29.2-29.2l0,0
	V114.7C198.8,98.5,211.8,85.4,228,85.4z"/>
<rect x="269.1" y="189.3" class="st2" width="61.7" height="14.9"/>
<rect x="266.2" y="253.3" class="st3" width="67.6" height="14.9"/>
<rect x="224.6" y="285.3" class="st3" width="150.9" height="14.9"/>
<rect x="224.6" y="317.2" class="st3" width="150.9" height="14.9"/>
<circle class="st2" cx="300" cy="417.5" r="43.2"/>
<polygon class="st1" points="292.3,435.7 279.4,419 286.9,413.2 293,421.1 313.7,399.2 320.6,405.8 "/>
</svg>
