<?xml version="1.0" encoding="utf-8"?>
<!-- Generator: Adobe Illustrator 25.2.0, SVG Export Plug-In . SVG Version: 6.00 Build 0)  -->
<svg version="1.1" id="eb846191-07fb-429d-a36d-4b9eed5e0368"
	 xmlns="http://www.w3.org/2000/svg" xmlns:xlink="http://www.w3.org/1999/xlink" x="0px" y="0px" viewBox="0 0 600 600"
	 style="enable-background:new 0 0 600 600;" xml:space="preserve">
<style type="text/css">
	.st0{fill:#CCCCCC;}
	.st1{fill:#E6E6E6;}
	.st2{fill:#455A64;stroke:#455A64;stroke-width:4;stroke-miterlimit:10;}
	.st3{fill:#3F3D56;stroke:#455A64;stroke-width:4;stroke-miterlimit:10;}
	.st4{fill:#FFCE54;}
	.st5{enable-background:new    ;}
</style>
<path class="st0" d="M203.8,438.5h-87.2c-9.4,0-17-7.6-17-17v-349c0-9.4,7.6-17,17-17l0,0h236.7l43.3,38.7v66.3h-2V95.1l-42.1-37.6
	h-236c-8.3,0-15,6.7-15,15v349c0,8.3,6.7,15,15,15h87.3V438.5z"/>
<path class="st0" d="M395.5,95.5h-27c-9.4,0-17-7.6-17-17v-22c0-0.6,0.4-1,1-1s1,0.4,1,1v22c0,8.3,6.7,15,15,15l0,0h27
	c0.6,0,1,0.4,1,1S396.1,95.5,395.5,95.5z"/>
<path class="st1" d="M362,146H134c-4.4,0-8,3.6-8,8s3.6,8,8,8h228c4.4,0,8-3.6,8-8S366.5,146,362,146z"/>
<path class="st1" d="M247,112H134c-4.4,0-8,3.6-8,8s3.6,8,8,8h113c4.4,0,8-3.6,8-8S251.5,112,247,112z"/>
<path class="st1" d="M362,146H134c-4.4,0-8,3.6-8,8s3.6,8,8,8h228c4.4,0,8-3.6,8-8S366.5,146,362,146z"/>
<path class="st1" d="M247,112H134c-4.4,0-8,3.6-8,8s3.6,8,8,8h113c4.4,0,8-3.6,8-8S251.5,112,247,112z"/>
<path class="st1" d="M134,213c-4.4,0-8,3.6-8,8s3.6,8,8,8h71.5v-16H134z"/>
<path class="st1" d="M134,179c-4.4,0-8,3.6-8,8s3.6,8,8,8h71.5v-16H134z"/>
<path class="st1" d="M134,213c-4.4,0-8,3.6-8,8s3.6,8,8,8h71.5v-16H134z"/>
<path class="st1" d="M134,179c-4.4,0-8,3.6-8,8s3.6,8,8,8h71.5v-16H134z"/>
<path class="st1" d="M206,382.5h-64c-9.1,0-16.5-7.4-16.5-16.5v-84c0-9.1,7.4-16.5,16.5-16.5h64V382.5z"/>
<path class="st2" d="M211.6,164c-5.1,3.1-8.1,8.6-8.1,14.5v2.5h2v-2.5c0-6.8,4.6-12.8,11.1-14.5H211.6z M457.2,161.5H220.5
	c-9.4,0-17,7.6-17,17v349c0,9.4,7.6,17,17,17h263c9.4,0,17-7.6,17-17V200.2L457.2,161.5z M498.5,527.5c0,8.3-6.7,15-15,15h-263
	c-8.3,0-15-6.7-15-15v-349c0-8.3,6.7-15,15-15l0,0h235.9l42.1,37.6V527.5z M211.6,164c-5.1,3.1-8.1,8.6-8.1,14.5v2.5h2v-2.5
	c0-6.8,4.6-12.8,11.1-14.5H211.6z"/>
<path class="st3" d="M499.5,201.5h-27c-9.4,0-17-7.6-17-17v-22c0-0.6,0.4-1,1-1s1,0.4,1,1v22c0,8.3,6.7,15,15,15h27c0.6,0,1,0.4,1,1
	S500.1,201.5,499.5,201.5z"/>
<path class="st0" d="M465.5,324.2h-228c-4.4,0-8-3.6-8-8s3.6-8,8-8h228c4.4,0,8,3.6,8,8S469.9,324.2,465.5,324.2z"/>
<path class="st0" d="M350.5,290.2h-113c-4.4,0-8-3.6-8-8s3.6-8,8-8h113c4.4,0,8,3.6,8,8S354.9,290.2,350.5,290.2z"/>
<path class="st0" d="M465.5,391.2h-228c-4.4,0-8-3.6-8-8s3.6-8,8-8h228c4.4,0,8,3.6,8,8S469.9,391.2,465.5,391.2z"/>
<path class="st0" d="M350.5,357.2h-113c-4.4,0-8-3.6-8-8s3.6-8,8-8h113c4.4,0,8,3.6,8,8S354.9,357.2,350.5,357.2z"/>
<path class="st4" d="M458,523.5H246c-9.1,0-16.5-7.4-16.5-16.5v-84c0-9.1,7.4-16.5,16.5-16.5h212c9.1,0,16.5,7.4,16.5,16.5v84
	C474.4,516.1,467.1,523.5,458,523.5z"/>
<g class="st5">
	<path class="st4" d="M300.3,218.1c1,13.9-12.9,9.5-0.2,20.8c-7.6,0.7-8.5-0.4-12.8-6.3C250.6,226.8,293.7,179,300.3,218.1z
		 M279.7,218.1c-1.4,12,15.4,13.2,14.3,0C295,204.8,278.3,206.2,279.7,218.1z"/>
	<path class="st4" d="M329,204.1c-0.6,9.3,4,30-11.7,28.6c-15.6,1.3-10.7-19.3-11.5-28.6h6c0.5,3.5-1.2,19.5,1.3,22
		c3.6,3.3,10.8,1.2,9.9-4.8v-17.2H329z"/>
	<path class="st4" d="M361.5,218.1c1.8,19.3-28.7,19.2-26.8,0C332.9,198.9,363.4,198.9,361.5,218.1z M341,218.1
		c-1.4,12,15.4,13.2,14.3,0C356.3,204.8,339.6,206.2,341,218.1z"/>
	<path class="st4" d="M378.3,232.3h-6V209h-7.7v-5h21.3v5h-7.7v23.3H378.3z"/>
	<path class="st4" d="M406.5,232.3h-16.2v-28.2h16.2v4.9h-10.3v6.2h9.5v4.9h-9.5c-1,11,2.2,6.4,10.3,7.3
		C406.5,227.3,406.5,232.3,406.5,232.3z"/>
</g>
</svg>
